<svg width="159" height="30" viewBox="0 0 159 30" fill="none" xmlns="http://www.w3.org/2000/svg"><path fill-rule="evenodd" clip-rule="evenodd" d="M29.68 15.675c1.287-.525 1.969-1.2 1.969-1.875 0-1.425-3.332-2.7-8.178-3.375l.303-.6c5.073.75 8.632 2.25 8.632 3.975 0 .9-.909 1.725-2.499 2.4a3.639 3.639 0 0 0-.227-.525zm-7.571-6c1.665-3.525 2.271-6.3 1.514-7.35v-.3c0-.3-.076-.6-.227-.9.151.075.303.075.454.225 1.439.975.833 4.575-1.287 9.075a1.996 1.996 0 0 0-.454-.75zm-.53-5.85c-.985 0-1.742-.75-1.742-1.725 0-.975.757-1.725 1.742-1.725.984 0 1.741.75 1.741 1.725 0 .9-.757 1.725-1.741 1.725zm-4.695 1.35c-.075-.075-.151-.225-.151-.3.984-.9 1.893-1.725 2.801-2.325.076.225.152.45.303.6-.833.6-1.741 1.425-2.65 2.325-.227-.075-.227-.15-.303-.3zM21.05 16.65c-.228 0-.455.075-.758.075a95.461 95.461 0 0 0-1.211-3.45C16.127 5.7 12.19.15 10.221.9c-.378.15-.681.6-.832 1.2-.228-.075-.455-.15-.682-.15C8.934.975 9.313.375 9.92.15c2.347-.9 6.814 4.875 9.918 12.9.454 1.2.833 2.4 1.212 3.6zM10.07 3.975c0 .825-.681 1.575-1.59 1.575S6.966 4.8 6.966 3.975 7.647 2.4 8.556 2.4c.908 0 1.514.675 1.514 1.575zM5.224 12.75c-1.135 0-2.12-.9-2.12-2.1 0-1.2.909-2.1 2.12-2.1 1.212 0 2.12.9 2.12 2.1 0 1.2-.984 2.1-2.12 2.1zm1.893 4.125c-.076.075-.151.225-.151.3-.152.075-.152.15-.227.225C2.65 16.65 0 15.3 0 13.8c0-.9.984-1.8 2.726-2.475.075.15.151.375.227.525-1.363.6-2.196 1.2-2.196 1.95-.076 1.275 2.499 2.4 6.36 3.075zm-1.06 2.1c1.666 0 2.953 1.275 2.953 2.925s-1.287 2.925-2.953 2.925S3.104 23.55 3.104 21.9s1.363-2.925 2.953-2.925zm-.53 6.3c0 .75.152 1.35.606 1.575 1.211.825 4.088-1.05 7.268-4.425l.379.675c-3.483 3.6-6.663 5.475-8.177 4.5-.606-.45-.833-1.275-.757-2.55.227.15.454.225.681.225zm15.446 3.15c.303-.075.53-.375.681-.675h.682c-.227.75-.606 1.275-1.136 1.5-1.741.675-4.694-2.4-7.344-7.35.303.075.605.15.908.15 2.347 4.275 4.77 6.9 6.209 6.375zm-1.514-3.6c0-1.35 1.06-2.4 2.422-2.4 1.363 0 2.423 1.05 2.423 2.4 0 1.35-1.06 2.4-2.423 2.4-1.287 0-2.422-1.05-2.422-2.4zm2.498-2.925h-.303a29.75 29.75 0 0 0-.681-3.15c.227 0 .454-.075.681-.075.303 1.125.53 2.25.682 3.225h-.379zm-2.801-3c.378 0 .681 0 1.06-.075l.227.9c-1.212 1.05-2.877 1.65-4.619 1.65-2.271 0-4.315-1.05-5.678-2.775.53.075 1.135.15 1.817.225 1.666.075 5.678.15 7.193.075zm-2.045-8.475c.758 1.575 1.893 4.2 2.423 5.925.076.15.076.3.152.45-.227 0-.379 0-.606.075-.909.075-5.83.075-7.117 0-.757 0-1.666-.15-2.347-.225.303-.525.605-1.125.984-1.8.833-1.5 3.104-4.5 3.71-5.175.303-.375.984-1.05 1.514-1.65.379.675.909 1.575 1.287 2.4zm-1.892-3.75c.075.15.227.3.302.525-1.287 1.5-2.65 3.15-4.012 5.1a65.18 65.18 0 0 0-3.938 6.6c-.227-.075-.454-.225-.681-.225.984-2.1 2.347-4.425 3.937-6.75C12.19 9.9 13.63 8.175 15.067 6.6c.076 0 .076 0 .152.075zm-2.12 1.2C12.114 9 9.994 11.625 9.237 12.9c-.227.3-.378.6-.53.9.227-2.775 2.044-5.1 4.543-6.075-.076.075-.076.15-.151.15zm-5.452 2.1c.303-.075.53-.075.833-.15l.303.6c-.379.075-.757.075-1.06.15 0-.15-.076-.375-.076-.6zm1.59-4.125c.152 1.05.303 2.175.606 3.45-.227.225-.379.45-.606.75C8.86 8.625 8.631 7.2 8.48 6c.303-.075.53-.075.757-.15zM21.58 16.575c-.379-1.5-2.348-6.375-2.878-7.5a70.007 70.007 0 0 1-.605-1.425c2.877.9 4.921 3.6 4.921 6.675 0 .75-.151 1.5-.378 2.25-.228 0-.606.075-.985.075 0-.075-.075-.075-.075-.075zm3.255.975c-2.498.45-5.451.675-8.707.675-2.65 0-5.148-.15-7.42-.525.076-.075.076-.15.152-.225.075-.075.151-.225.227-.375 2.12.3 4.467.45 7.041.45 3.18 0 6.057-.225 8.556-.6.076.225.076.45.151.6zm2.499-3.075c1.287 0 2.271.975 2.271 2.25s-.984 2.25-2.271 2.25-2.272-.975-2.272-2.25.985-2.25 2.272-2.25zm129.016 12.75c-.303.3-.757.45-1.287.45-.303 0-.606-.075-.833-.15-.227-.15-.454-.3-.606-.45-.151-.225-.303-.45-.378-.75-.076-.3-.152-.6-.152-.975s.076-.675.152-.975c.075-.3.227-.525.378-.75a1.18 1.18 0 0 1 .606-.45c.227-.15.53-.15.833-.15.303 0 .606.075.833.15.227.15.454.3.605.45.152.225.303.45.379.75.076.3.151.6.151.975 0 .9-.227 1.5-.681 1.875zm-.076-2.475c-.075-.225-.151-.375-.227-.6a.91.91 0 0 0-.378-.375c-.152-.075-.303-.15-.53-.15-.228 0-.379.075-.53.15a.908.908 0 0 0-.379.375c-.076.15-.151.375-.227.6-.076.225-.076.45-.076.675 0 .225 0 .45.076.675.076.225.151.375.227.6.076.225.227.3.379.375.151.075.302.15.53.15.378 0 .681-.15.908-.525.227-.3.303-.75.303-1.275-.076-.225-.076-.45-.076-.675zm-4.618 2.925h-.303v-3.45c0-.15 0-.3-.076-.375-.076-.075-.151-.075-.303-.075h-.075v-.45h.53c.151 0 .302.075.454.15.076.15.151.3.151.45v3.825c-.151-.15-.303-.075-.378-.075zm-.152-5.25c-.151 0-.227 0-.378-.075-.076-.075-.152-.15-.152-.375 0-.15 0-.225.076-.3.076-.075.227-.075.454-.075.152 0 .303 0 .379.075.076.075.076.15.076.375 0 .15 0 .3-.076.375h-.379zm-2.423 4.65c-.378.45-.832.675-1.362.675-.53 0-.909-.225-1.212-.6-.227-.375-.378-.975-.378-1.725 0-.375.075-.675.151-.975.076-.3.227-.525.379-.75.151-.225.302-.375.53-.45.227-.075.378-.15.605-.15.379 0 .757.15 1.136.375V21l.076-.075h.227c.151 0 .227 0 .303.075.075.075.075.15.075.375v4.95c0 .45.076.825.228.975-.076.15-.152.3-.303.375-.227-.075-.379-.3-.455-.6zm-.075-3a1.665 1.665 0 0 0-1.06-.375c-.303 0-.53.15-.757.45-.228.3-.303.75-.303 1.35 0 .6.075 1.05.303 1.275.151.3.378.45.681.45.227 0 .379-.075.606-.15.227-.15.378-.3.53-.525v-2.475zM144.236 27a2.73 2.73 0 0 1-.757.525c-.303.15-.606.225-.833.225a1.26 1.26 0 0 1-.909-.375 1.932 1.932 0 0 1-.303-1.05v-2.25c0-.3 0-.6-.075-.75.075-.075.227-.15.454-.15s.378.15.378.45V26.1c0 .375.076.675.152.825.076.15.303.225.53.225.227 0 .53-.075.757-.225.227-.15.454-.3.681-.525v-3.225h.682v3.15c0 .45.076.825.227.975-.076.15-.151.3-.303.375-.378-.075-.53-.3-.681-.675zm-4.922-3.3v3c0 .225.152.375.379.375h.681c.076.075.076.225.076.3v.225c-.303 0-.53.075-.833.075-.606 0-.908-.225-.908-.75V23.7h-.682v-.45h.682v-.975c0-.15 0-.3.075-.375.076-.075.152-.075.303-.075h.227l.076.075v1.35h1.136v.45h-1.212zm-3.71 1.275l.53.225c.757.3 1.136.75 1.136 1.275 0 .375-.151.75-.454.9-.303.225-.757.3-1.287.3-.53 0-.985-.15-1.515-.45 0-.15.076-.375.227-.45.303.15.53.3.758.3.227.075.378.075.605.075.152 0 .303 0 .379-.075.076-.075.227-.075.303-.15.075-.075.151-.15.151-.225.076-.075.076-.15.076-.225 0-.15-.076-.3-.152-.45-.075-.15-.302-.225-.53-.3l-.53-.225c-.378-.15-.681-.3-.908-.525-.227-.225-.303-.45-.303-.75 0-.15.076-.375.151-.525.076-.15.152-.3.303-.375.152-.075.303-.225.455-.225.151-.075.378-.075.605-.075.455 0 .909.075 1.363.3a.68.68 0 0 1-.227.525c-.227-.075-.454-.15-.606-.225-.227-.075-.378-.075-.53-.075-.303 0-.454.075-.605.225-.152.15-.228.3-.228.45 0 .15.076.3.152.375.303.15.454.225.681.375zM130.91 27.3c0 .45-.076.75-.151 1.05-.076.3-.152.525-.303.75-.152.15-.303.3-.53.375-.227.075-.455.15-.757.15-.606 0-1.06-.075-1.59-.3 0-.225.075-.375.227-.525.378.225.833.3 1.211.3.227 0 .454 0 .606-.075.151-.075.303-.15.378-.3l.228-.45c0-.15.075-.375.075-.6v-.525c-.378.375-.833.6-1.363.6-.454 0-.832-.225-1.135-.6-.303-.375-.379-.975-.379-1.725 0-.375.076-.675.152-.975.075-.3.227-.525.378-.75.152-.225.303-.375.53-.45.227-.075.454-.15.682-.15.454 0 .908.15 1.287.45a.678.678 0 0 1 .454-.45c.151.075.227.225.303.375-.152.15-.227.45-.227.975v2.85h-.076zm-.606-3.225a2.28 2.28 0 0 0-.53-.375c-.151-.075-.378-.15-.53-.15-.303 0-.605.15-.833.45-.227.3-.302.75-.302 1.35 0 .6.075.975.302 1.275.152.3.379.45.682.45.227 0 .454-.075.681-.15.227-.15.379-.3.53-.45v-2.4zm-4.391 3.6c-.227 0-.379-.15-.379-.45V24.75c0-.375-.075-.6-.151-.75-.076-.15-.227-.225-.53-.225-.227 0-.53.075-.757.225-.227.15-.455.3-.682.525v3.225h-.605v-4.5l.075-.075h.227c.152 0 .228.075.303.075.076.075.076.225.076.375v.15c.227-.225.454-.375.757-.45.303-.15.53-.15.833-.15.379 0 .681.15.909.375.151.225.302.6.302 1.05v2.25c0 .375 0 .6.076.75-.151 0-.303.075-.454.075zm-4.997 0h-.303v-3.45c0-.15 0-.3-.076-.375-.076-.075-.151-.075-.303-.075h-.075v-.45h.53c.151 0 .302.075.454.15.076.15.151.3.151.45v3.825c-.151-.15-.227-.075-.378-.075zm-.152-5.25c-.151 0-.227 0-.378-.075-.076-.075-.152-.15-.152-.375 0-.15 0-.225.076-.3.076-.075.227-.075.454-.075.152 0 .303 0 .379.075.076.075.076.15.076.375 0 .15 0 .3-.076.375h-.379zm-2.12 5.25c-.227 0-.378-.15-.378-.45V24.75c0-.375-.076-.6-.152-.75-.075-.15-.227-.225-.454-.225s-.454.075-.606.15c-.227.15-.378.3-.605.525v3.225h-.606V24.75c0-.375-.076-.6-.152-.75-.075-.15-.227-.225-.454-.225a.866.866 0 0 0-.606.225c-.227.15-.378.3-.605.525v3.15h-.606V23.25l.076-.075h.227c.151 0 .227.075.303.075.075.075.075.225.075.375v.15c.379-.45.833-.675 1.363-.675s.833.225 1.06.675c.53-.45.985-.675 1.439-.675.378 0 .681.15.833.375.151.225.303.6.303.975v2.25c0 .375 0 .6.075.75-.227.15-.378.225-.53.225zm-7.193 0c-.227 0-.378-.15-.378-.45V24.75c0-.375-.076-.6-.152-.75-.075-.15-.227-.225-.454-.225s-.454.075-.606.15c-.227.15-.378.3-.605.525v3.225h-.606V24.75c0-.375-.076-.6-.151-.75-.076-.15-.228-.225-.455-.225a.862.862 0 0 0-.605.225c-.228.15-.379.3-.606.525v3.15h-.606V23.25l.076-.075h.227c.151 0 .227.075.303.075.076.075.076.225.076.375v.15c.378-.45.832-.675 1.362-.675.53 0 .833.225 1.06.675.53-.45.985-.675 1.439-.675.379 0 .681.15.833.375.151.225.303.6.303.975v2.25c0 .375 0 .6.075.75-.227.15-.378.225-.53.225zm-7.495-.6c-.455.45-.909.675-1.363.675-.227 0-.454 0-.606-.075-.151-.075-.303-.15-.454-.3-.076-.15-.227-.225-.227-.45-.076-.15-.076-.3-.076-.525 0-.225.076-.45.151-.6.076-.15.228-.3.303-.45.152-.15.303-.225.53-.3.227-.075.379-.075.606-.075.454 0 .833 0 1.136.075v-.45c0-.6-.303-.9-.833-.9-.454 0-.909.15-1.514.375a.677.677 0 0 1-.228-.525c.682-.3 1.212-.45 1.818-.45.908 0 1.438.525 1.438 1.5v1.875c0 .225 0 .375.076.525.076.15.076.225.227.375-.076.15-.151.3-.303.375-.454-.15-.606-.375-.681-.675zm-.076-1.575c-.151 0-.303-.075-.454-.075h-.53c-.379 0-.606.075-.757.225-.152.15-.303.375-.303.6 0 .225.075.45.227.6a.69.69 0 0 0 .53.225c.227 0 .454-.075.681-.15.227-.15.455-.3.606-.525v-.9zm-3.634-1.725c-.455 0-.833.3-1.136.825v3h-.606v-3.15c0-.375-.075-.75-.303-.9.076-.15.152-.3.303-.375.303.15.53.375.682.825.227-.525.681-.825 1.211-.825h.454c0 .225-.075.45-.151.6h-.454zM96.763 27.3c0 .45 0 .75-.076 1.05-.076.3-.151.525-.303.75-.151.15-.303.3-.53.375-.227.075-.454.15-.757.15-.606 0-1.06-.075-1.59-.3a.68.68 0 0 1 .227-.525c.379.225.833.3 1.212.3.227 0 .454 0 .605-.075.152-.075.303-.15.379-.3l.227-.45c0-.15.076-.375.076-.6v-.525c-.379.375-.833.6-1.363.6-.454 0-.833-.225-1.136-.6-.303-.375-.378-.975-.378-1.725 0-.375.075-.675.151-.975.076-.3.227-.525.379-.75.151-.225.303-.375.53-.45.227-.075.454-.15.681-.15.454 0 .909.15 1.287.45a.68.68 0 0 1 .455-.45c.151.075.227.225.302.375-.151.15-.227.45-.227.975v2.85h-.151zm-.606-3.225a2.3 2.3 0 0 0-.53-.375c-.151-.075-.378-.15-.53-.15-.303 0-.606.15-.833.45-.227.3-.303.75-.303 1.35 0 .6.076.975.303 1.275.152.3.379.45.682.45.227 0 .454-.075.681-.15.227-.15.379-.3.53-.45v-2.4zM90.48 27.75c-.303 0-.606-.075-.833-.15-.227-.15-.455-.3-.606-.45-.152-.225-.303-.45-.379-.75-.075-.3-.151-.6-.151-.975s.076-.675.151-.975c.076-.3.227-.525.379-.75.151-.225.379-.375.606-.45.227-.15.53-.15.832-.15.303 0 .606.075.833.15.227.15.455.3.606.45.152.225.303.45.379.75.075.3.151.6.151.975 0 .825-.227 1.425-.606 1.8-.454.375-.832.525-1.362.525zm1.135-3c-.075-.225-.151-.375-.227-.6a.908.908 0 0 0-.379-.375c-.15-.075-.302-.15-.53-.15-.227 0-.378.075-.53.15a.908.908 0 0 0-.378.375 5.13 5.13 0 0 0-.227.6c-.076.225-.076.45-.076.675 0 .225 0 .45.076.675.075.225.151.375.227.6.076.15.227.3.379.375.151.075.302.15.53.15.378 0 .681-.15.908-.525.227-.3.303-.75.303-1.275 0-.225-.076-.45-.076-.675zm-3.861-.975c-.454 0-.833.3-1.136.825v3h-.606v-3.15c0-.375-.075-.75-.302-.9.075-.15.151-.3.302-.375.303.15.53.375.682.825.227-.525.681-.825 1.211-.825h.455c0 .225-.076.45-.152.6h-.454zm-3.635 3.3c-.15.225-.302.375-.53.45-.227.075-.378.15-.605.15-.455 0-.833-.15-1.212-.375v1.8c0 .15 0 .3-.075.375-.076.075-.152.075-.303.075h-.227l-.076-.075V23.25l.076-.075h.227c.151 0 .227.075.303.075.075.075.075.225.075.375v.075c.379-.375.833-.6 1.287-.6.53 0 .91.225 1.136.6.227.375.379.975.379 1.725 0 .375-.076.675-.152.975 0 .225-.151.45-.303.675zm-.227-2.475c-.075-.225-.151-.375-.227-.525a.589.589 0 0 0-.303-.3c-.075-.075-.227-.075-.378-.075a1.23 1.23 0 0 0-.682.225c-.227.15-.378.3-.53.525v2.325c.379.3.682.375 1.06.375.379 0 .606-.15.833-.45.227-.3.303-.75.303-1.275 0-.3 0-.6-.076-.825zm-6.965 2.475c-.379.45-.833.675-1.363.675s-.909-.225-1.212-.6c-.227-.375-.378-.975-.378-1.725 0-.375.076-.675.151-.975.076-.3.227-.525.379-.75.151-.225.303-.375.53-.45.227-.075.378-.15.605-.15.38 0 .758.15 1.136.375V21l.076-.075h.227c.151 0 .227 0 .303.075.076.075.076.15.076.375v4.95c0 .45.075.825.227.975-.076.15-.152.3-.303.375a.983.983 0 0 1-.454-.6zm-.076-3a1.664 1.664 0 0 0-1.06-.375c-.303 0-.53.15-.757.45-.227.3-.303.75-.303 1.35 0 .6.076 1.05.303 1.275.151.3.378.45.681.45.227 0 .379-.075.606-.15.227-.15.379-.3.53-.525v-2.475zm-4.391 3.6c-.228 0-.379-.15-.379-.45V24.75c0-.375-.076-.6-.151-.75-.076-.15-.228-.225-.53-.225-.228 0-.53.075-.758.225-.227.15-.454.3-.681.525v3.225h-.606v-4.5l.076-.075h.303c.151 0 .227.075.303.075.075.075.075.225.075.375v.15c.227-.225.455-.375.757-.45.303-.15.53-.15.833-.15.379 0 .682.15.909.375.151.225.303.6.303 1.05v2.25c0 .375 0 .6.076.75-.152 0-.303.075-.53.075zm-5.225-.6c-.454.45-.908.675-1.363.675-.227 0-.454 0-.605-.075a1.588 1.588 0 0 1-.455-.3c-.075-.15-.227-.225-.227-.45-.076-.15-.076-.3-.076-.525 0-.225.076-.45.152-.6.076-.15.227-.3.303-.45.151-.15.303-.225.53-.3.227-.075.378-.075.606-.075.454 0 .832 0 1.135.075v-.45c0-.6-.303-.9-.833-.9-.454 0-.908.15-1.514.375a.678.678 0 0 1-.227-.525c.681-.3 1.211-.45 1.817-.45.909 0 1.439.525 1.439 1.5v1.875c0 .225 0 .375.075.525.076.15.076.225.228.375-.076.15-.152.3-.303.375-.455-.15-.606-.375-.682-.675zM67.16 25.5h-.986c-.378 0-.605.075-.757.225-.151.15-.303.375-.303.6 0 .225.076.45.227.6a.69.69 0 0 0 .53.225c.228 0 .455-.075.682-.15.227-.15.454-.3.606-.525V25.5zm-6.209 2.175c-.227 0-.379-.15-.379-.45V24.75c0-.375-.075-.6-.151-.75-.076-.15-.227-.225-.53-.225-.227 0-.53.075-.757.225-.227.15-.455.3-.682.525v3.225h-.605v-4.5l.075-.075h.227c.152 0 .228.075.303.075.076.075.076.225.076.375v.15c.227-.225.454-.375.757-.45.303-.15.53-.15.833-.15.379 0 .681.15.909.375.151.225.302.6.302 1.05v2.25c0 .375 0 .6.076.75-.076 0-.227.075-.454.075zm-4.694-.375c0 .45-.076.75-.152 1.05-.075.3-.151.525-.303.75-.151.15-.303.3-.53.375-.227.075-.454.15-.757.15-.606 0-1.06-.075-1.59-.3a.68.68 0 0 1 .227-.525c.379.225.833.3 1.212.3.227 0 .454 0 .605-.075.152-.075.303-.15.38-.3l.226-.45c0-.15.076-.375.076-.6v-.525c-.379.375-.833.6-1.363.6-.454 0-.833-.225-1.136-.6-.303-.375-.378-.975-.378-1.725 0-.375.075-.675.151-.975.076-.3.227-.525.379-.75.151-.225.303-.375.53-.45.227-.075.454-.15.681-.15.454 0 .909.15 1.287.45a.68.68 0 0 1 .455-.45c.151.075.227.225.303.375-.152.15-.228.45-.228.975v2.85h-.075zm-.606-3.225a2.3 2.3 0 0 0-.53-.375c-.151-.075-.379-.15-.53-.15-.303 0-.606.15-.833.45-.227.3-.303.75-.303 1.35 0 .6.076.975.303 1.275.151.3.379.45.681.45.228 0 .455-.075.682-.15.227-.15.379-.3.53-.45v-2.4zm-4.467 3.6h-.303v-3.45c0-.15 0-.3-.076-.375-.076-.075-.151-.075-.303-.075h-.075v-.45h.529c.151 0 .302.075.454.15.076.15.151.3.151.45v3.825c-.075-.15-.227-.075-.378-.075zm-.152-5.25c-.151 0-.227 0-.378-.075-.076-.075-.152-.15-.152-.375 0-.15 0-.225.076-.3.076-.075.227-.075.454-.075.152 0 .303 0 .379.075.076.075.076.15.076.375 0 .15 0 .3-.076.375h-.379zm-3.104 2.55l.53.225c.757.3 1.136.75 1.136 1.275 0 .375-.152.75-.455.9-.302.225-.757.3-1.287.3-.53 0-.984-.15-1.514-.45 0-.15.076-.375.227-.45.303.15.53.3.757.3.227.075.379.075.606.075.151 0 .303 0 .379-.075.075-.075.227-.075.303-.15.075-.075.151-.15.151-.225.076-.075.076-.15.076-.225 0-.15-.076-.3-.152-.45-.075-.15-.303-.225-.53-.3l-.53-.225c-.378-.15-.681-.3-.908-.525-.227-.225-.303-.45-.303-.75 0-.15.076-.375.151-.525.076-.15.152-.3.303-.375.152-.075.303-.225.454-.225.152-.075.379-.075.606-.075.454 0 .909.075 1.363.3a.678.678 0 0 1-.227.525c-.227-.075-.455-.15-.606-.225-.227-.075-.379-.075-.53-.075-.303 0-.454.075-.606.225-.151.15-.227.3-.227.45 0 .15.076.3.152.375.302.15.454.225.681.375zm-2.423.6h-2.801c0 1.05.454 1.5 1.136 1.5.378 0 .832-.15 1.287-.375.151.15.227.3.227.45-.53.3-1.06.525-1.666.525-.303 0-.606-.075-.833-.15-.227-.15-.378-.3-.53-.45-.151-.225-.227-.45-.303-.75-.075-.3-.075-.6-.075-.9 0-.375.075-.675.151-.9.076-.3.227-.525.379-.75.151-.225.378-.375.605-.45.227-.15.455-.15.758-.15.302 0 .53.075.757.15.227.075.378.225.53.375.151.15.227.375.303.6.075.225.151.525.151.75v.3c-.076.075-.076.15-.076.225zm-.681-.6c0-.45-.076-.75-.227-.975-.152-.225-.455-.375-.757-.375-.379 0-.606.15-.833.375-.227.3-.303.6-.303 1.125h2.195v-.15h-.075zm-4.77 2.1c-.379.45-.833.675-1.363.675s-.909-.225-1.212-.6c-.227-.375-.378-.975-.378-1.725 0-.375.076-.675.151-.975.076-.3.227-.525.379-.75.151-.225.303-.375.53-.45.227-.075.379-.15.606-.15.378 0 .757.15 1.135.375V21l.076-.075h.227c.152 0 .227 0 .303.075.076.075.076.15.076.375v4.95c0 .45.075.825.227.975-.076.15-.152.3-.303.375a.984.984 0 0 1-.454-.6zm-.076-3a1.664 1.664 0 0 0-1.06-.375c-.303 0-.53.15-.757.45-.227.3-.303.75-.303 1.35 0 .6.076 1.05.303 1.275.151.3.379.45.681.45.227 0 .379-.075.606-.15.227-.15.379-.3.53-.525v-2.475zM154.896 7.183c-.625.28-3.748.726-4.316.838-.568.168-1.646.28-1.646.28s.056 5.197.284 5.867c.227.727.567 2.46 2.044 2.403 1.476-.056 2.782-.838 3.066-.503.284.335.34.95-.171 1.285-.511.336-1.987.727-2.611.727-.625 0-2.499-.503-3.123-1.788-.625-1.286-.625-5.31-.568-6.091.057-.783-.057-2.347-.057-2.347s-1.079.167-1.476-.28c-.454-.447-.625-1.285-.284-1.62.341-.336.852-.056 1.363 0 .511.055.794 0 .794 0l-.17-3.745s-.454-.614-.227-1.117.568-.615.909-.615c.34 0 .738.28.738.95 0 .615-.057 4.694-.057 4.694h4.429c1.022 0 1.476-.056 1.646.28.057.279.057.503-.567.782zm-8.801 8.494c-.341.727-2.442 3.074-3.123 3.409-.738.335-1.76.223-2.442-.168-.624-.335-2.044-2.347-2.157-3.632-.057-1.285.567-4.75.624-4.974.057-.223-.341-1.62-.17-2.403.227-.782.454-.95.852-.782.454.168.34.615.34.615s.795-2.794 2.044-3.744c1.306-1.006 1.59-.727 2.044-.56.511.168 1.477 1.342 1.363 2.571-.17 1.23-.057 1.845-.738 2.795-.625.95-2.044 2.347-3.009 2.626-.909.28-1.704.223-1.704.223s-.738 3.354-.284 4.192c.455.838 1.193 2.067 2.158 1.732.908-.335 3.009-2.57 3.463-2.85.625-.335 1.079.28.739.95zm-2.158-8.773c.227-1.062.284-1.565-.284-1.51-.568.057-1.476 1.398-1.874 1.9-.34.504-.795 2.124-.795 2.124s2.726-1.453 2.953-2.514zm-8.403 10.114c-.909.56-1.42 1.062-2.158.615-.738-.447-1.136-1.23-1.42-3.241-.283-2.068-.738-5.31-1.022-5.7-.283-.336-1.419 1.788-2.157 3.185s-2.215 3.688-2.782 4.75c-.568 1.062-.852 1.565-1.42 1.565s-1.306-.783-1.136-2.627c.171-1.844.455-5.476.341-6.314-.057-.839-.057-2.18 0-2.683.057-.503.057-.726.568-.726.511 0 1.022.782.908 1.844-.056 1.062-.17 3.241-.227 4.191-.056.95 0 2.962 0 2.962s2.158-3.409 2.783-4.694c.624-1.286 1.76-3.353 2.725-4.136.908-.782 1.59-.447 1.76.783.227 1.23.738 7.04.909 7.823.227.783.227 1.62.738 1.397.511-.223 1.646-1.061 1.987-1.676.341-.615.511-1.565 1.079-1.788.568-.224.908.503.738 1.117-.114.727-1.249 2.794-2.214 3.353zm-17.034 1.23c-.739 0-1.306-.56-1.136-1.565.17-1.006 1.192-1.565 1.703-1.341.511.223 1.079.838.909 1.788-.114.894-.738 1.118-1.476 1.118zm-6.587-.336c-.738-.503-1.76-2.29-1.93-4.135-.171-1.844.056-3.856.056-3.856s-2.328 4.527-3.179 6.036c-.852 1.508-1.704 2.29-2.271 2.123-.568-.168-.852-1.285-.909-2.85-.057-1.565.17-6.315 0-7.041-.17-.727-.568-1.565-1.192-.28-.625 1.286-3.861 7.321-4.259 8.383-.454 1.061-.738 1.564-1.306 1.564-.567 0-.851-.558-.851-2.011 0-1.397.227-3.968.34-5.253.17-1.286.227-3.241 0-3.744-.227-.503-.454-1.062-.17-1.62.284-.56.454-.616.908-.504.511.168.795.838.738 1.788-.056.95-.34 4.527-.34 5.197 0 .615-.227 2.795-.227 2.795s2.498-4.75 3.634-6.818c1.135-2.068 1.76-2.85 2.555-2.682.795.167 1.362 1.34 1.476 2.794.17 1.397 0 7.88 0 7.88s1.363-1.845 2.158-3.466c.795-1.62 2.782-5.308 3.123-5.98.34-.614 1.078-.334 1.305-.055.228.28 0 .727-.17 1.23-.17.502-.227 4.358-.057 5.811.171 1.51.341 2.85 1.193 3.074.851.223 1.703-1.286 2.271-1.677.568-.447 1.022-.335 1.022.224s-.738 1.9-1.42 2.626c-.738.56-1.816.95-2.498.447zm-24.131 1.062c-2.896-.112-2.726-2.347-2.782-3.465-.057-1.117 1.362-5.755 1.703-6.985.34-1.23.51-1.844.852-2.459.34-.614 1.362-1.117 2.214-1.23.852-.055 2.328.95 3.066 2.46.738 1.564 1.079 4.414.511 6.035-.624 1.677-3.18 5.756-5.564 5.644zm3.747-11.12c-.624-1.51-1.93-1.398-1.93-1.398s0 .839-.284 1.118c-.284.28-1.08 1.118-1.704 2.57-.624 1.398-1.42 5.086-1.476 6.036-.057.95 1.476 1.509 2.612.782 1.136-.726 3.066-2.961 3.463-4.47.455-1.51-.056-3.13-.68-4.638zm-11.697.167c-.567.168-1.646.28-1.646.28s.057 5.197.284 5.867c.227.727.568 2.46 2.044 2.403 1.476-.056 2.782-.838 3.066-.503.284.335.34.95-.17 1.285-.511.336-1.988.727-2.612.727-.625 0-2.499-.503-3.123-1.788-.625-1.286-.625-5.31-.568-6.091.057-.783-.057-2.347-.057-2.347s-1.078.167-1.476-.28c-.454-.447-.625-1.285-.284-1.62.34-.336.852-.056 1.363 0 .51.055.795 0 .795 0l-.17-3.745s-.455-.614-.228-1.117.568-.615.909-.615c.34 0 .738.28.738.95 0 .615-.057 4.694-.057 4.694h4.429c1.022 0 1.476-.056 1.647.28.17.335.17.558-.511.838-.682.223-3.805.615-4.373.782zm-6.643 7.935s.852.615.738 1.118c-.17.503-.738 1.23-1.42 1.285-.737.056-.794-.447-1.078-1.006-.284-.558-.17-5.755-.17-5.755s-1.306 2.067-1.93 3.073c-.625 1.006-2.84 3.409-3.35 3.633-.512.223-1.42-1.006-1.704-1.397-.284-.448.227-4.527.51-6.371.285-1.844.796-3.577 1.193-4.75.455-1.23.909-1.788 1.76-2.459.852-.726 2.215 0 3.01.28.795.279 1.476.95 1.93.782.454-.168.795 0 .795 0s-.17 2.57-.227 3.967c-.057 1.398-.852 6.762-.852 7.377 0 .615.795.223.795.223zm-1.362-9.555s-.795-1.062-1.76-1.342c-1.023-.279-1.59-.167-2.215.447-.625.56-1.079 2.683-1.363 3.856-.284 1.118-.738 4.974-.795 5.533-.056.559 0 1.509.455 1.23.454-.28 3.406-4.248 3.974-5.31.568-1.061 1.363-2.18 1.59-2.906.227-.838.114-1.508.114-1.508zM59.619 19.086c-.738.335-1.76.223-2.442-.168-.624-.335-2.044-2.347-2.157-3.632-.057-1.285.567-4.75.624-4.974.057-.223-.34-1.62-.17-2.403.227-.782.454-.95.852-.782.454.168.34.615.34.615s.795-2.794 2.044-3.744c1.306-1.006 1.59-.727 2.044-.56.512.168 1.477 1.342 1.363 2.571-.17 1.23-.057 1.845-.738 2.795-.624.95-2.044 2.347-3.01 2.626-.908.28-1.703.223-1.703.223s-.738 3.354-.284 4.192c.455.838 1.193 2.067 2.158 1.732.909-.335 3.01-2.57 3.464-2.85.51-.28.908.28.567 1.006-.17.67-2.214 3.018-2.952 3.353zM60.64 6.904c.227-1.062.284-1.565-.284-1.51-.568.057-1.476 1.398-1.874 1.9-.34.504-.795 2.124-.795 2.124s2.726-1.453 2.953-2.514zm-10.107 3.744c1.987.726 3.464 1.23 3.407 2.18-.057 1.005-.909 2.067-2.158 2.793-1.192.727-6.132 2.012-7.097 2.18-1.022.223-1.42 0-1.76.279-.341.28-.795.224-1.08 0-.283-.223-.737-.782-.624-1.062.057-.28.057-5.867.057-5.867s-.852-.056-1.022-.447c-.17-.336.17-.839.454-1.062.284-.224.454-.336.454-.336s-.34-5.029-.51-5.532c-.17-.503-.455-1.006-.852-1.006-.454 0-1.704.336-2.158 0-.454-.335-.625-.838-.511-1.23.17-.334 0-.726.625-.726.624 0 5.167.447 7.154.839 1.987.447 5.848 1.9 5.735 2.905-.057 1.006-.228 1.51-1.363 2.18-1.136.726-6.132 3.073-6.132 3.073s5.394.112 7.381.839zm-6.189-3.186c1.079-.726 3.634-1.508 4.202-1.9.568-.447-.227-.95-1.476-1.34-1.306-.448-4.43-1.007-4.43-1.007l.171 5.141c0-.055.511-.167 1.533-.894zm-1.533 3.8v5.03s3.123-.168 3.975-.447c.851-.28 4.031-1.51 4.996-2.012.909-.503.511-1.062-.17-1.341-.625-.28-.511-.503-3.01-.727-2.441-.112-5.791-.503-5.791-.503z" fill="#fff"/></svg>