<svg width="271" height="67" viewBox="0 0 271 67" fill="none" xmlns="http://www.w3.org/2000/svg"><path d="M6.16 49.236h.041l2.413-5.633h2.803v.869l-1.114.191v5.284l1.114.192V51H7.842v-.861l1.114-.192v-4.08l-.041-.014L6.645 51h-.93l-2.31-5.257-.04.014v4.19l1.114.192V51H.903v-.861l1.115-.192v-5.284l-1.115-.191v-.869h2.851l2.406 5.633zM17.46 51c-.041-.2-.073-.38-.096-.54a5.656 5.656 0 0 1-.048-.479c-.26.333-.585.611-.977.834a2.49 2.49 0 0 1-1.244.329c-.77 0-1.356-.187-1.757-.561-.401-.378-.602-.91-.602-1.593 0-.702.283-1.242.848-1.62.57-.383 1.349-.574 2.338-.574h1.388v-.861c0-.433-.137-.775-.41-1.026-.274-.255-.655-.383-1.142-.383-.337 0-.636.044-.896.13a1.678 1.678 0 0 0-.622.356l-.143.779h-1.04v-1.435a3.942 3.942 0 0 1 1.224-.643 4.776 4.776 0 0 1 1.559-.246c.838 0 1.517.214 2.037.642.52.429.78 1.042.78 1.84v3.841c.004.091.01.182.02.273l.547.076V51H17.46zm-2.167-.984c.447 0 .855-.108 1.224-.322.369-.214.633-.471.793-.772v-1.217h-1.436c-.551 0-.989.128-1.313.383-.319.255-.478.565-.478.93 0 .323.1.572.3.745.201.168.504.253.91.253zm8.374.074a1.81 1.81 0 0 0 1.176-.41c.342-.277.512-.617.512-1.018h1.21l.014.041c.023.638-.262 1.205-.854 1.702a3.108 3.108 0 0 1-2.058.739c-1.076 0-1.898-.351-2.468-1.053-.565-.702-.847-1.584-.847-2.646v-.287c0-1.053.284-1.93.854-2.632.57-.706 1.39-1.06 2.461-1.06.592 0 1.123.099 1.593.295.474.196.866.465 1.175.806l.062 1.641h-1.073l-.294-1.162a1.782 1.782 0 0 0-.615-.376 2.362 2.362 0 0 0-.848-.144c-.706 0-1.212.256-1.518.766-.3.506-.45 1.128-.45 1.866v.287c0 .757.15 1.388.45 1.894.301.501.807.752 1.518.752zm4.279-5.618v-.869h3.575v.869l-1.114.191v5.284h2.598v-6.344h1.347v6.344h2.604v-5.284l-1.114-.191v-.869h3.575v.869l-1.114.191v5.284l1.114.192V51h-11.47v-.861l1.114-.192v-5.284l-1.115-.191zm19.667-.869v2.202h-1.155l-.102-1.156h-1.587v5.298l1.115.192V51h-3.575v-.861l1.114-.192V44.65h-1.559l-.102 1.156h-1.149v-2.202h7zm5.9 7.397a9.28 9.28 0 0 1-.096-.54 5.697 5.697 0 0 1-.048-.479 3.29 3.29 0 0 1-.977.834 2.49 2.49 0 0 1-1.245.329c-.77 0-1.355-.187-1.756-.561-.401-.378-.602-.91-.602-1.593 0-.702.283-1.242.848-1.62.57-.383 1.349-.574 2.338-.574h1.387v-.861c0-.433-.136-.775-.41-1.026-.273-.255-.654-.383-1.142-.383-.337 0-.635.044-.895.13a1.678 1.678 0 0 0-.622.356l-.144.779H49.11v-1.435a3.941 3.941 0 0 1 1.224-.643 4.775 4.775 0 0 1 1.559-.246c.838 0 1.517.214 2.037.642.52.429.779 1.042.779 1.84v3.841c.005.091.011.182.02.273l.547.076V51h-1.763zm-2.167-.984c.446 0 .854-.108 1.223-.322.37-.214.634-.471.793-.772v-1.217h-1.435c-.552 0-.99.128-1.313.383-.319.255-.478.565-.478.93 0 .323.1.572.3.745.201.168.504.253.91.253zm8.736-5.989c.939 0 1.682.315 2.228.944.547.624.82 1.426.82 2.406v.15c0 1.062-.295 1.93-.888 2.605-.592.674-1.399 1.012-2.42 1.012-1.02 0-1.827-.338-2.42-1.012-.592-.675-.888-1.543-.888-2.605v-.957c0-1.458.305-2.62.916-3.486.61-.866 1.43-1.401 2.46-1.607.575-.104.99-.23 1.245-.375.26-.146.39-.385.39-.718h1.038l.014.04c.014.803-.175 1.33-.567 1.58-.392.25-1.014.449-1.866.595a3.23 3.23 0 0 0-1.6.724c-.438.374-.706.923-.807 1.648l.028.034a3.114 3.114 0 0 1 1.011-.704 3.17 3.17 0 0 1 1.306-.274zm-.273 1.053c-.643 0-1.128.219-1.456.656-.329.438-.493.985-.493 1.641v.15c0 .743.164 1.356.492 1.84.329.482.819.724 1.47.724.643 0 1.13-.242 1.463-.725.333-.483.5-1.096.5-1.839v-.15c0-.656-.17-1.203-.507-1.64-.332-.438-.822-.657-1.47-.657zM21.561 64.139l1.539-.192V56.49l-1.566.028v-.841l2.912-.63v8.901l1.531.192V65h-4.416v-.861zm7.281.861h-1.347v-1.38h1.347V65zm0-6.016h-1.347v-1.38h1.347v1.38zm1.36 5.155l1.538-.192V56.49l-1.565.028v-.841l2.912-.63v8.901l1.531.192V65h-4.416v-.861zm11.184-2.489h1.374v1.053h-1.374v1.244l1.114.192V65h-3.568v-.861l1.114-.192v-1.244h-4.47v-.759l4.388-6.897h1.422v6.603zm-4.375 0h3.035v-4.682l-.041-.014-.137.362-2.857 4.334zm70.86-8.674l1.114-.192v-8.12l-1.114-.192v-.869h2.27l.123.903c.246-.337.544-.595.895-.773a2.72 2.72 0 0 1 1.231-.266c.916 0 1.627.364 2.132 1.093.511.725.766 1.684.766 2.878v.144c0 1.066-.255 1.928-.766 2.584-.51.652-1.214.978-2.112.978-.456 0-.857-.076-1.203-.226a2.362 2.362 0 0 1-.875-.684v2.55l1.114.192v.868h-3.575v-.868zm6.064-5.538c0-.843-.164-1.533-.493-2.07-.328-.539-.815-.808-1.463-.808-.382 0-.71.087-.984.26-.273.173-.494.41-.663.711v3.603c.169.305.387.542.656.71.274.165.609.247 1.005.247.638 0 1.121-.233 1.449-.697.329-.465.493-1.07.493-1.812v-.144zM121.338 51c-.041-.2-.073-.38-.096-.54a5.535 5.535 0 0 1-.048-.479 3.266 3.266 0 0 1-.977.834 2.49 2.49 0 0 1-1.244.329c-.771 0-1.356-.187-1.757-.561-.401-.378-.602-.91-.602-1.593 0-.702.283-1.242.848-1.62.57-.383 1.349-.574 2.338-.574h1.388v-.861c0-.433-.137-.775-.411-1.026-.273-.255-.654-.383-1.141-.383-.337 0-.636.044-.896.13a1.683 1.683 0 0 0-.622.356l-.143.779h-1.039v-1.435a3.941 3.941 0 0 1 1.223-.643 4.778 4.778 0 0 1 1.559-.246c.838 0 1.517.214 2.037.642.519.429.779 1.042.779 1.84v3.841c.005.091.012.182.021.273l.547.076V51h-1.764zm-2.167-.984a2.4 2.4 0 0 0 1.224-.322c.369-.214.633-.471.793-.772v-1.217h-1.436c-.551 0-.989.128-1.313.383-.319.255-.478.565-.478.93 0 .323.1.572.301.745.2.168.503.253.909.253zm8.046-3.336c.474 0 .811-.09 1.012-.267.205-.182.307-.444.307-.786 0-.31-.116-.572-.348-.786-.233-.214-.586-.322-1.06-.322-.424 0-.779.112-1.066.336-.288.223-.431.494-.431.813h-1.278l-.014-.041c-.027-.634.23-1.149.772-1.545.543-.401 1.215-.602 2.017-.602.866 0 1.543.187 2.03.561.488.37.732.898.732 1.586 0 .333-.101.638-.301.916a2.017 2.017 0 0 1-.841.656c.415.146.731.365.95.657.219.287.328.64.328 1.059 0 .693-.266 1.235-.799 1.627-.529.392-1.229.588-2.099.588-.807 0-1.499-.194-2.078-.581-.574-.392-.85-.957-.827-1.696l.013-.04h1.279c0 .346.15.647.451.902.301.255.688.383 1.162.383.488 0 .866-.112 1.135-.335.269-.228.403-.51.403-.848 0-.396-.118-.686-.355-.868-.233-.182-.597-.274-1.094-.274h-1.285V46.68h1.285zm9.481 2.556h.041l2.413-5.633h2.803v.869l-1.114.191v5.284l1.114.192V51h-3.575v-.861l1.114-.192v-4.08l-.041-.014L137.184 51h-.93l-2.311-5.257-.041.014v4.19l1.115.192V51h-3.576v-.861l1.115-.192v-5.284l-1.115-.191v-.869h2.851l2.406 5.633zm9.851 1.908c-1.03 0-1.85-.342-2.461-1.026-.606-.688-.909-1.579-.909-2.673v-.3c0-1.053.312-1.928.936-2.626.629-.701 1.372-1.052 2.229-1.052.993 0 1.745.3 2.256.902.515.602.772 1.404.772 2.406v.841h-4.799l-.02.034c.013.711.193 1.297.54 1.757.346.456.831.684 1.456.684.456 0 .854-.064 1.196-.192.346-.132.645-.312.896-.54l.526.875c-.264.256-.615.472-1.053.65-.433.173-.954.26-1.565.26zm-.205-6.618c-.451 0-.837.192-1.156.575-.319.378-.514.854-.587 1.428l.013.034h3.411v-.177c0-.529-.141-.971-.423-1.326-.283-.356-.702-.534-1.258-.534zm4.197 8.45l1.114-.192v-8.12l-1.114-.192v-.869h2.27l.123.903c.246-.337.544-.595.895-.773a2.72 2.72 0 0 1 1.231-.266c.916 0 1.627.364 2.132 1.093.511.725.766 1.684.766 2.878v.144c0 1.066-.255 1.928-.766 2.584-.51.652-1.214.978-2.112.978-.456 0-.857-.076-1.203-.226a2.354 2.354 0 0 1-.875-.684v2.55l1.114.192v.868h-3.575v-.868zm6.063-5.538c0-.843-.164-1.533-.492-2.07-.328-.539-.815-.808-1.463-.808-.382 0-.711.087-.984.26-.273.173-.494.41-.663.711v3.603c.169.305.387.542.656.71.274.165.609.247 1.005.247.638 0 1.121-.233 1.449-.697.328-.465.492-1.07.492-1.812v-.144zM84.991 64.139l1.538-.192V56.49l-1.565.028v-.841l2.912-.63v8.901l1.531.192V65h-4.416v-.861zm7.424-4.738h1.176c.597 0 1.018-.148 1.265-.444.25-.3.375-.718.375-1.25 0-.57-.14-1.004-.423-1.3-.283-.296-.7-.444-1.251-.444-.524 0-.946.155-1.265.465-.314.305-.472.713-.472 1.223h-1.292l-.013-.04c-.023-.753.248-1.39.813-1.915.57-.528 1.313-.793 2.229-.793.92 0 1.654.246 2.2.739.548.487.821 1.184.821 2.091 0 .41-.125.82-.376 1.23-.246.407-.617.716-1.114.93.597.197 1.018.504 1.265.923.25.42.376.89.376 1.409 0 .907-.299 1.62-.896 2.14-.592.519-1.351.779-2.276.779-.912 0-1.664-.244-2.256-.732-.593-.492-.877-1.157-.855-1.996l.02-.041h1.286c0 .524.16.941.479 1.251.323.31.765.465 1.326.465.57 0 1.016-.155 1.34-.465.323-.31.485-.768.485-1.374 0-.615-.144-1.069-.43-1.36-.288-.292-.741-.438-1.361-.438h-1.176v-1.053zm8.989 4.738l.793-.158 2.181-2.72-2.112-2.632-.793-.157v-.869h2.898v.869l-.67.082 1.381 1.777 1.388-1.784-.663-.075v-.869h2.919v.869l-.793.157-2.113 2.632 2.174 2.72.8.158V65h-2.898v-.861l.656-.075-1.449-1.86-1.45 1.86.663.075V65h-2.912v-.861zm11.874.861v-.923l3.261-3.623c.583-.652.978-1.169 1.183-1.552.209-.383.314-.774.314-1.175 0-.497-.146-.914-.437-1.251-.292-.342-.677-.513-1.156-.513-.688 0-1.194.175-1.517.526-.324.351-.486.848-.486 1.49h-1.292l-.013-.04c-.023-.857.26-1.577.847-2.16.593-.584 1.413-.876 2.461-.876.898 0 1.611.262 2.14.787.533.519.8 1.182.8 1.989 0 .542-.162 1.084-.486 1.627-.319.542-.77 1.128-1.353 1.757l-2.618 2.85.013.034h3.535l.109-1.141h1.142V65h-6.447zm11.615-10.097c.337 0 .672.04 1.004.117.338.077.616.175.834.293l-.259 1.005a3.581 3.581 0 0 0-1.579-.355c-.698 0-1.254.264-1.668.793-.411.524-.629 1.317-.657 2.379l.028.027c.255-.237.567-.424.936-.56a3.32 3.32 0 0 1 1.197-.212c.888 0 1.597.307 2.125.922.529.616.793 1.395.793 2.338 0 1.03-.282 1.871-.847 2.523-.561.647-1.31.97-2.249.97-.971 0-1.775-.353-2.413-1.059-.638-.706-.957-1.707-.957-3.001v-1.34c0-1.577.346-2.778 1.039-3.602.692-.825 1.583-1.238 2.673-1.238zm-.458 4.492c-.461 0-.853.093-1.176.28-.324.182-.57.428-.738.738v.8c0 .925.191 1.636.574 2.133.387.496.872.745 1.456.745.551 0 .98-.233 1.285-.697.31-.47.465-1.05.465-1.744 0-.656-.167-1.196-.499-1.62-.328-.424-.784-.636-1.367-.636zm7.649 4.744l.793-.158 2.181-2.72-2.113-2.632-.793-.157v-.869h2.899v.869l-.67.082 1.381 1.777 1.387-1.784-.663-.075v-.869h2.919v.869l-.793.157-2.112 2.632 2.174 2.72.8.158V65h-2.899v-.861l.656-.075-1.449-1.86-1.449 1.86.663.075V65h-2.912v-.861zm11.874.861v-.923l3.261-3.623c.583-.652.977-1.169 1.182-1.552.21-.383.315-.774.315-1.175 0-.497-.146-.914-.438-1.251-.291-.342-.676-.513-1.155-.513-.688 0-1.194.175-1.518.526-.323.351-.485.848-.485 1.49h-1.292l-.014-.04c-.022-.857.26-1.577.848-2.16.593-.584 1.413-.876 2.461-.876.898 0 1.611.262 2.14.787.533.519.799 1.182.799 1.989 0 .542-.161 1.084-.485 1.627-.319.542-.77 1.128-1.353 1.757l-2.619 2.85.014.034h3.534l.11-1.141h1.141V65h-6.446zm14.239-3.794c0 1.271-.282 2.247-.847 2.926-.565.674-1.338 1.012-2.318 1.012-.975 0-1.747-.34-2.317-1.019-.57-.679-.855-1.652-.855-2.919v-2.358c0-1.267.283-2.24.848-2.92.565-.683 1.335-1.025 2.311-1.025.979 0 1.754.342 2.324 1.026.569.679.854 1.652.854 2.919v2.358zm-1.346-2.646c0-.86-.158-1.508-.472-1.94-.31-.438-.763-.657-1.36-.657-.588 0-1.037.219-1.347.656-.31.433-.465 1.08-.465 1.941v2.92c0 .86.157 1.513.472 1.955.314.437.765.656 1.353.656.597 0 1.048-.219 1.354-.656.31-.438.465-1.09.465-1.956V58.56zm9.584 5.53a1.81 1.81 0 0 0 1.175-.41c.342-.277.513-.617.513-1.018h1.21l.014.041c.022.638-.262 1.205-.855 1.702a3.108 3.108 0 0 1-2.057.739c-1.076 0-1.899-.351-2.468-1.053-.565-.702-.848-1.584-.848-2.646v-.287c0-1.053.285-1.93.855-2.632.569-.706 1.39-1.06 2.461-1.06.592 0 1.123.099 1.592.295a3.22 3.22 0 0 1 1.176.806l.062 1.641h-1.074l-.294-1.162a1.773 1.773 0 0 0-.615-.376 2.358 2.358 0 0 0-.847-.144c-.707 0-1.213.256-1.518.766-.301.506-.451 1.128-.451 1.866v.287c0 .757.15 1.388.451 1.894.301.501.807.752 1.518.752zm9.536-.854h.041l2.413-5.633h2.803v.869l-1.115.191v5.284l1.115.192V65h-3.576v-.861l1.115-.192v-4.08l-.041-.014-2.27 5.147h-.93l-2.31-5.257-.041.014v4.19l1.114.192V65h-3.575v-.861l1.114-.192v-5.284l-1.114-.191v-.869h2.85l2.407 5.633zm33.355-13.097l1.538-.192V42.49l-1.565.028v-.841l2.912-.63v8.901l1.531.192V51h-4.416v-.861zm5.606.861v-.923l3.26-3.623c.584-.652.978-1.169 1.183-1.552.21-.383.314-.774.314-1.175 0-.497-.145-.914-.437-1.251-.292-.342-.677-.513-1.155-.513-.688 0-1.194.175-1.518.526-.323.351-.485.848-.485 1.49h-1.292l-.014-.04c-.023-.857.26-1.577.848-2.16.592-.584 1.413-.876 2.461-.876.897 0 1.611.262 2.139.787.534.519.8 1.182.8 1.989 0 .542-.162 1.084-.485 1.627-.319.542-.77 1.128-1.354 1.757l-2.618 2.85.014.034h3.534l.109-1.141h1.142V51h-6.446zm14.239-3.794c0 1.271-.283 2.247-.848 2.926-.565.674-1.337 1.012-2.317 1.012-.975 0-1.748-.34-2.318-1.019-.569-.679-.854-1.652-.854-2.919v-2.358c0-1.267.283-2.24.848-2.92.565-.683 1.335-1.025 2.31-1.025.98 0 1.755.342 2.324 1.026.57.679.855 1.652.855 2.919v2.358zm-1.347-2.646c0-.86-.157-1.508-.471-1.94-.31-.438-.764-.657-1.361-.657-.588 0-1.037.219-1.346.656-.31.433-.465 1.08-.465 1.941v2.92c0 .86.157 1.513.471 1.955.315.437.766.656 1.354.656.597 0 1.048-.219 1.353-.656.31-.438.465-1.09.465-1.956V44.56zm9.331 2.646c0 1.271-.282 2.247-.847 2.926-.565.674-1.338 1.012-2.318 1.012-.975 0-1.747-.34-2.317-1.019-.57-.679-.855-1.652-.855-2.919v-2.358c0-1.267.283-2.24.848-2.92.565-.683 1.335-1.025 2.311-1.025.979 0 1.754.342 2.324 1.026.569.679.854 1.652.854 2.919v2.358zm-1.346-2.646c0-.86-.158-1.508-.472-1.94-.31-.438-.763-.657-1.36-.657-.588 0-1.037.219-1.347.656-.31.433-.465 1.08-.465 1.941v2.92c0 .86.157 1.513.472 1.955.314.437.765.656 1.353.656.597 0 1.048-.219 1.354-.656.31-.438.465-1.09.465-1.956V44.56zm2.508 5.579l1.115-.192v-5.284l-1.115-.191v-.869h2.325l.088.964a2.43 2.43 0 0 1 .916-.813c.374-.191.807-.287 1.299-.287.493 0 .914.114 1.265.342.355.227.622.57.8 1.025.232-.42.54-.752.923-.998.382-.246.829-.37 1.339-.37.757 0 1.354.26 1.791.78.438.515.657 1.292.657 2.331v3.37l1.114.192V51h-3.582v-.861l1.114-.192v-3.384c0-.729-.125-1.244-.376-1.544-.25-.306-.622-.459-1.114-.459-.469 0-.848.167-1.135.5-.282.328-.446.742-.492 1.244v3.643l1.114.192V51h-3.575v-.861l1.114-.192v-3.384c0-.692-.13-1.198-.389-1.517-.256-.324-.627-.486-1.115-.486-.41 0-.747.085-1.011.253a1.635 1.635 0 0 0-.609.711v4.423l1.115.192V51h-3.576v-.861zm13.269 0l.738-.103 3.48-8.99h1.155l3.418 8.99.731.103V51h-2.857v-.861l.752-.13-.656-1.832h-3.986l-.676 1.832.752.13V51h-2.851v-.861zm3.192-3.09h3.159l-1.545-4.273h-.041l-1.573 4.273zm7.11 3.09l1.114-.192v-8.552l-1.114-.19v-.87h2.461v4.253c.255-.356.567-.631.936-.827a2.583 2.583 0 0 1 1.231-.294c.793 0 1.408.237 1.845.71.438.475.657 1.204.657 2.188v3.582l1.114.192V51h-3.575v-.861l1.114-.192v-3.595c0-.611-.132-1.062-.397-1.354-.259-.292-.649-.438-1.169-.438-.369 0-.706.09-1.011.267-.301.173-.549.41-.745.711v4.41l1.114.19V51h-3.575v-.861zm-34.255 9.262h1.176c.597 0 1.018-.148 1.264-.444.251-.3.376-.718.376-1.25 0-.57-.141-1.004-.424-1.3-.282-.296-.699-.444-1.251-.444-.524 0-.945.155-1.264.465-.315.305-.472.713-.472 1.223h-1.292l-.014-.04c-.022-.753.249-1.39.814-1.915.57-.528 1.312-.793 2.228-.793.921 0 1.655.246 2.202.739.546.487.82 1.184.82 2.091 0 .41-.125.82-.376 1.23-.246.407-.618.716-1.114.93.597.197 1.018.504 1.264.923.251.42.376.89.376 1.409 0 .907-.298 1.62-.895 2.14-.593.519-1.351.779-2.277.779-.911 0-1.663-.244-2.255-.732-.593-.492-.878-1.157-.855-1.996l.021-.041h1.285c0 .524.159.941.478 1.251.324.31.766.465 1.326.465.57 0 1.017-.155 1.34-.465.324-.31.486-.768.486-1.374 0-.615-.144-1.069-.431-1.36-.287-.292-.741-.438-1.36-.438h-1.176v-1.053zM235.05 65h-1.347v-1.38h1.347V65zm8.285-8.894c-1.203 1.431-2.017 2.7-2.44 3.808-.42 1.103-.723 2.44-.91 4.013L239.876 65h-1.347l.11-1.073c.191-1.568.562-2.97 1.114-4.204.551-1.235 1.306-2.44 2.263-3.617h-4.157l-.102 1.142h-1.149v-2.201h6.727v1.06zm3.931-.191l-.91.144 2.229 6.466.226.787h.041l.225-.787 2.222-6.473-.896-.137v-.868h3.138v.868l-.8.11L249.405 65h-1.155l-3.336-8.976-.793-.109v-.868h3.145v.868zM21 1a1 1 0 0 0-1 1v3.733a1 1 0 1 0 2 0V3h2.467a1 1 0 1 0 0-2H21zm9.533 0a1 1 0 1 0 0 2h6.934a1 1 0 1 0 0-2h-6.934zm13 0a1 1 0 1 0 0 2H46v2.467a1 1 0 1 0 2 0V2a1 1 0 0 0-1-1h-3.467zM48 11.533a1 1 0 1 0-2 0v6.934a1 1 0 1 0 2 0v-6.934zm-26 .734a1 1 0 1 0-2 0V16a1 1 0 1 0 2 0v-3.733zm26 12.266a1 1 0 1 0-2 0V27h-2.733a1 1 0 1 0 0 2H47a1 1 0 0 0 1-1v-3.467zM33 27a1 1 0 1 0 0 2h3.733a1 1 0 1 0 0-2H33zM43.707 5.293a1 1 0 0 1 0 1.414L34.414 16H37a1 1 0 1 1 0 2h-5a1 1 0 0 1-1-1v-5a1 1 0 1 1 2 0v2.586l9.293-9.293a1 1 0 0 1 1.414 0z" fill="#8A8F92"/><path fill-rule="evenodd" clip-rule="evenodd" d="M14 20a1 1 0 0 1 1-1h14a1 1 0 0 1 1 1v14a1 1 0 0 1-1 1H15a1 1 0 0 1-1-1V20zm2 1v12h12V21H16zM128 3c.288 0 .563.124.753.341l3.5 4a1.001 1.001 0 0 1-1.506 1.317L129 6.662v12.51a3.002 3.002 0 0 1 1.97 3.252l10.599 6.522-.55-2.749a1 1 0 0 1 1.962-.392l1 5a1 1 0 0 1-.785 1.177l-5 1a1 1 0 0 1-.392-1.962l2.505-.5-10.268-6.32a2.992 2.992 0 0 1-2.041.801 2.992 2.992 0 0 1-2.041-.8l-10.268 6.318 2.505.501a1 1 0 1 1-.392 1.962l-5-1a1 1 0 0 1-.785-1.177l1-5a1 1 0 0 1 1.962.392l-.55 2.75 10.599-6.523a3.001 3.001 0 0 1 1.97-3.252V6.66l-1.747 1.998a1 1 0 0 1-1.506-1.318l3.5-4c.19-.217.465-.341.753-.341zm-1 19a1 1 0 1 1 2 0 1 1 0 0 1-2 0z" fill="#8A8F92"/><path d="M223 10a2 2 0 0 0-2 2v12a2 2 0 0 0 2 2h3a2 2 0 0 0 2-2V12a2 2 0 0 0-2-2h-3zm7 2a2 2 0 0 1 2-2h3a2 2 0 0 1 2 2v12a2 2 0 0 1-2 2h-3a2 2 0 0 1-2-2V12zm11-2a2 2 0 0 0-2 2v12a2 2 0 0 0 2 2h3a2 2 0 0 0 2-2V12a2 2 0 0 0-2-2h-3zm7 2a2 2 0 0 1 2-2h3a2 2 0 0 1 2 2v12a2 2 0 0 1-2 2h-3a2 2 0 0 1-2-2V12z" fill="#8A8F92"/><path fill-rule="evenodd" clip-rule="evenodd" d="M222 6a5 5 0 0 0-5 5v14a5 5 0 0 0 5 5h32a5 5 0 0 0 5-5v-2h3a1 1 0 0 0 1-1v-8a1 1 0 0 0-1-1h-3v-2a5 5 0 0 0-5-5h-32zm-3 5a3 3 0 0 1 3-3h32a3 3 0 0 1 3 3v14a3 3 0 0 1-3 3h-32a3 3 0 0 1-3-3V11z" fill="#8A8F92"/></svg>