<svg width="160" height="160" viewBox="0 0 160 160" fill="none" xmlns="http://www.w3.org/2000/svg"><path fill-rule="evenodd" clip-rule="evenodd" d="M50.056 4.815a3 3 0 0 0-4.112 0l-17 16A3 3 0 0 0 31 25.999h7v13a3 3 0 0 0 3 3h14a3 3 0 0 0 3-3V26h7a3 3 0 0 0 2.056-5.184l-17-16zM41 19.999h-2.435L48 11.12 57.435 20H55a3 3 0 0 0-3 3v13h-8V23a3 3 0 0 0-3-3zm9.056 68.185a3 3 0 0 1-4.112 0l-17-16A3 3 0 0 1 31 66.999h7V54a3 3 0 0 1 3-3h14a3 3 0 0 1 3 3v13h7a3 3 0 0 1 2.056 5.185l-17 16zM41 72.999h-2.435L48 81.88 57.435 73H55a3 3 0 0 1-3-3V57h-8v13a3 3 0 0 1-3 3zm49.185-23.944a3 3 0 0 0 0-4.112l-16-17A3 3 0 0 0 69 30v34a3 3 0 0 0 5.185 2.056l16-17zM75 56.435V37.564l8.88 9.435L75 56.434zM5.815 44.943a3 3 0 0 0 0 4.112l16 17A3 3 0 0 0 27 64V30a3 3 0 0 0-5.185-2.056l-16 17zM21 37.564v18.87L12.12 47 21 37.564z" fill="#4ECD00"/><path d="M126.5 91a4.49 4.49 0 0 0-3.5 1.67 4.5 4.5 0 1 0 0 5.657 4.5 4.5 0 1 0 3.5-7.329zM74 109.999a3 3 0 0 1 3-3h6a3 3 0 1 1 0 6h-6a3 3 0 0 1-3-3zm3 6a3 3 0 1 0 0 6h6a3 3 0 1 0 0-6h-6zm12 3a3 3 0 0 1 3-3h2a3 3 0 1 1 0 6h-2a3 3 0 0 1-3-3zm10 0a3 3 0 0 1 3-3h2a3 3 0 1 1 0 6h-2a3 3 0 0 1-3-3zm-10-9a3 3 0 0 1 3-3h6a3 3 0 1 1 0 6h-6a3 3 0 0 1-3-3zm15 0a3 3 0 0 1 3-3h6a3 3 0 1 1 0 6h-6a3 3 0 0 1-3-3zm15 0a3 3 0 0 1 3-3h6a3 3 0 1 1 0 6h-6a3 3 0 0 1-3-3z" fill="#77A4C5"/><path fill-rule="evenodd" clip-rule="evenodd" d="M80 69a7 7 0 0 1 7-7h61a7 7 0 0 1 7 7v37.999a7 7 0 0 1-7 7h-8v13a7 7 0 0 1-7 7H72c-.34 0-.673-.024-1-.071v2.871c0 .068-.001.134-.004.2H71v9.8c0 1.981-1.164 3.433-2.277 4.345-1.135.929-2.595 1.633-4.134 2.167-3.107 1.077-7.204 1.688-11.589 1.688-4.385 0-8.482-.611-11.59-1.688-1.228-.426-2.407-.961-3.41-1.633-1.003.672-2.181 1.207-3.41 1.633-3.108 1.077-7.205 1.688-11.59 1.688s-8.482-.611-11.59-1.688c-1.538-.534-2.998-1.238-4.133-2.167C6.164 150.232 5 148.78 5 146.799v-9.8h.004a4.979 4.979 0 0 1-.004-.2v-9.8h.004a4.979 4.979 0 0 1-.004-.2v-9.8h.024a5.15 5.15 0 0 1-.024-.5c0-1.952 1.089-3.432 2.214-4.407 1.132-.982 2.597-1.73 4.147-2.298 3.123-1.146 7.239-1.795 11.639-1.795 4.4 0 8.516.649 11.64 1.795 1.55.568 3.014 1.316 4.146 2.298 1.125.975 2.214 2.455 2.214 4.407 0 .171-.008.337-.024.5H41v2.931c.12-.047.24-.092.36-.136 3.124-1.146 7.24-1.795 11.64-1.795s8.516.649 11.64 1.795c.12.044.24.089.36.136V89a7 7 0 0 1 7-7h8V69zm-9 57.999v-38a1 1 0 0 1 1-1h61a1 1 0 0 1 1 1v38a1 1 0 0 1-1 1H72a1 1 0 0 1-1-1zm77-19h-8v-15.5h9V107a1 1 0 0 1-1 1zm1-21.5h-9.46A7.002 7.002 0 0 0 133 82H86v-3.75h63v8.25zM86 72.25h63V69a1 1 0 0 0-1-1H87a1 1 0 0 0-1 1v3.25zm-75.069 44.592l-.009.015.003-.004a.08.08 0 0 0 .006-.011zm2.495-1.414c-1.023.375-1.713.758-2.126 1.072.413.314 1.103.697 2.126 1.073 2.306.845 5.69 1.427 9.574 1.427 3.884 0 7.268-.582 9.574-1.427 1.023-.376 1.713-.759 2.126-1.073-.413-.314-1.103-.697-2.126-1.072C30.268 114.582 26.884 114 23 114c-3.884 0-7.268.582-9.574 1.428zm21.652 1.429l-.01-.015c.008.01.01.015.01.015zm-.01-.699l.01-.014s-.002.005-.01.014zm-24.137 0c-.007-.009-.009-.014-.009-.014l.01.014zM11 146.434v-3.271c.136.051.273.1.41.148 3.108 1.077 7.205 1.688 11.59 1.688s8.482-.611 11.59-1.688c.137-.048.274-.097.41-.148v3.271l-.08.069c-.384.315-1.12.731-2.296 1.139-2.322.805-5.725 1.357-9.624 1.357-3.9 0-7.302-.552-9.624-1.357-1.175-.408-1.912-.824-2.295-1.139a1.721 1.721 0 0 1-.081-.069zm30 0v-3.271c.136.051.273.1.41.148 3.108 1.077 7.205 1.688 11.59 1.688s8.482-.611 11.59-1.688c.137-.048.274-.097.41-.148v3.271l-.08.069c-.384.315-1.12.731-2.296 1.139-2.322.805-5.725 1.357-9.624 1.357-3.9 0-7.302-.552-9.624-1.357-1.175-.408-1.912-.824-2.295-1.139a1.721 1.721 0 0 1-.081-.069zm.08-9.931a1.721 1.721 0 0 1-.08-.069v-3.365c.12.046.24.092.36.136 3.124 1.145 7.24 1.794 11.64 1.794s8.516-.649 11.64-1.794c.12-.044.24-.09.36-.136v3.365a.61.61 0 0 1-.03.027l-.05.042c-.384.315-1.12.731-2.296 1.139-2.322.805-5.725 1.357-9.624 1.357-3.9 0-7.302-.552-9.624-1.357-1.175-.408-1.912-.824-2.295-1.139zM11 136.434v-3.271c.136.051.273.1.41.148 3.108 1.077 7.205 1.688 11.59 1.688s8.482-.611 11.59-1.688c.137-.048.274-.097.41-.148v3.271l-.08.069c-.384.315-1.12.731-2.296 1.139-2.322.805-5.725 1.357-9.624 1.357-3.9 0-7.302-.552-9.624-1.357-1.175-.408-1.912-.824-2.295-1.139a1.721 1.721 0 0 1-.081-.069zm24-13.365c-.12.046-.24.092-.36.136-3.124 1.145-7.24 1.794-11.64 1.794s-8.516-.649-11.64-1.794c-.12-.044-.24-.09-.36-.136v3.365l.08.069c.384.315 1.12.731 2.296 1.139 2.322.805 5.725 1.357 9.624 1.357 3.9 0 7.302-.552 9.624-1.357 1.175-.408 1.912-.824 2.295-1.139.031-.025.058-.048.081-.069v-3.365zm-24.111 3.254zm24.222 10a.154.154 0 0 0 .012-.016l-.004.005a.06.06 0 0 0-.008.011zm-24.23-.011l.008.011a.108.108 0 0 0-.012-.016l.003.005zm32.545-10.885c-1.023.375-1.713.758-2.126 1.072.413.314 1.103.697 2.126 1.073 2.306.845 5.69 1.427 9.574 1.427 3.884 0 7.268-.582 9.574-1.427 1.023-.376 1.713-.759 2.126-1.073-.413-.314-1.103-.697-2.126-1.072-2.306-.846-5.69-1.428-9.574-1.428-3.884 0-7.268.582-9.574 1.428zm21.697 10.88l-.012.016.012-.016zm0 10l-.012.016.012-.016zm-30.012.016a.154.154 0 0 0 .012-.016l-.004.005a.066.066 0 0 0-.008.011zm-24.231-.012z" fill="#77A4C5"/></svg>