<svg width="100" height="100" viewBox="0 0 100 100" fill="none" xmlns="http://www.w3.org/2000/svg"><path fill-rule="evenodd" clip-rule="evenodd" d="M43.846 19.584L24.024 34H16C9.343 34 4 39.343 4 46v8c0 6.697 5.571 12 12 12h8.024l19.822 14.416A8.282 8.282 0 0 0 57 73.718V26.282a8.282 8.282 0 0 0-13.154-6.698zm3.53 4.852A2.282 2.282 0 0 1 51 26.282v47.436a2.282 2.282 0 0 1-3.625 1.845l-20.61-14.99A3 3 0 0 0 25 60h-9c-3.196 0-6-2.697-6-6v-8c0-3.343 2.657-6 6-6h9a3 3 0 0 0 1.765-.574l20.61-14.99z" fill="#77A4C5"/><path d="M77.952 21.375a3 3 0 1 0-2.904 5.25C83.374 31.23 89 40.095 89 50.269c0 10.175-5.626 19.04-13.952 23.644a3 3 0 0 0 2.904 5.25C88.111 73.546 95 62.714 95 50.27c0-12.444-6.89-23.275-17.048-28.894z" fill="#77A4C5"/><path d="M66.808 29.797a2.5 2.5 0 0 1 3.395-.989C77.523 32.826 82.5 40.58 82.5 49.5s-4.977 16.673-12.297 20.69a2.5 2.5 0 1 1-2.406-4.383c5.797-3.182 9.703-9.3 9.703-16.308 0-7.01-3.906-13.126-9.703-16.309a2.5 2.5 0 0 1-.989-3.394z" fill="#77A4C5"/><path d="M63.093 38.325a2 2 0 1 0-2.186 3.35C63.262 43.212 65 46.294 65 50c0 3.704-1.738 6.787-4.093 8.325a2 2 0 1 0 2.186 3.35C66.7 59.32 69 54.904 69 50c0-4.906-2.3-9.32-5.907-11.675z" fill="#77A4C5"/></svg>