<svg width="100" height="100" viewBox="0 0 100 100" fill="none" xmlns="http://www.w3.org/2000/svg"><path d="M13 33a3 3 0 0 0-3 3v28a3 3 0 0 0 3 3h10a3 3 0 0 0 3-3V36a3 3 0 0 0-3-3H13zm16 3a3 3 0 0 1 3-3h10a3 3 0 0 1 3 3v28a3 3 0 0 1-3 3H32a3 3 0 0 1-3-3V36zm22-3a3 3 0 0 0-3 3v28a3 3 0 0 0 3 3h10a3 3 0 0 0 3-3V36a3 3 0 0 0-3-3H51zm16 3a3 3 0 0 1 3-3h10a3 3 0 0 1 3 3v28a3 3 0 0 1-3 3H70a3 3 0 0 1-3-3V36z" fill="#77A4C5"/><path fill-rule="evenodd" clip-rule="evenodd" d="M13 26C7.477 26 3 30.477 3 36v28c0 5.523 4.477 10 10 10h67c5.523 0 10-4.477 10-10v-4h4a3 3 0 0 0 3-3V43a3 3 0 0 0-3-3h-4v-4c0-5.523-4.477-10-10-10H13zM7 36a6 6 0 0 1 6-6h67a6 6 0 0 1 6 6v28a6 6 0 0 1-6 6H13a6 6 0 0 1-6-6V36z" fill="#77A4C5"/></svg>