<svg width="100" height="100" viewBox="0 0 100 100" fill="none" xmlns="http://www.w3.org/2000/svg"><path d="M29.04 25h9.98v-2.54h-6.221v-.136l1.836-1.729c1.224-1.12 2.077-1.982 2.558-2.587.489-.606.847-1.195 1.075-1.768a4.9 4.9 0 0 0 .351-1.855c0-.756-.189-1.426-.566-2.012-.378-.586-.908-1.042-1.592-1.367-.684-.326-1.471-.489-2.363-.489a7.58 7.58 0 0 0-1.836.205 6.27 6.27 0 0 0-1.514.567c-.462.247-1.045.67-1.748 1.27l1.64 1.943c.567-.469 1.11-.83 1.632-1.084a3.636 3.636 0 0 1 1.61-.381c.528 0 .948.14 1.26.42.32.28.48.706.48 1.28 0 .383-.072.754-.216 1.112-.143.358-.377.75-.703 1.172-.325.417-1.019 1.169-2.08 2.256L29.039 22.9V25zm13.388 2.578c.807-1.803 1.38-3.363 1.719-4.678L44 22.676h-2.734a56.83 56.83 0 0 1-.987 4.902h2.149z" fill="#77A4C5"/><path fill-rule="evenodd" clip-rule="evenodd" d="M56.568 22.04H54.85V25H51.9v-2.96h-6.093v-2.099l6.26-9.219h2.783v8.975h1.718v2.344zM51.9 19.698v-2.422c0-.403.017-.99.05-1.758.032-.768.058-1.214.077-1.338h-.078c-.24.534-.53 1.055-.869 1.563l-2.617 3.955H51.9z" fill="#77A4C5"/><path d="M69.772 16.982h-5.665v2.52h2.706v2.978a9.793 9.793 0 0 1-1.924.195c-1.211 0-2.136-.406-2.774-1.22-.631-.82-.947-2.005-.947-3.555 0-1.484.394-2.666 1.182-3.545.787-.879 1.836-1.318 3.144-1.318 1.126 0 2.21.26 3.252.781l1.006-2.422a10.61 10.61 0 0 0-4.238-.879c-2.338 0-4.167.645-5.489 1.934-1.315 1.289-1.972 3.086-1.972 5.39 0 2.37.566 4.19 1.699 5.46 1.14 1.263 2.786 1.894 4.941 1.894.847 0 1.674-.062 2.48-.186a15.57 15.57 0 0 0 2.599-.625v-7.402zM84.879 25H81.86v-6.162h-5.654V25H73.18V10.722h3.027v5.596h5.654v-5.596h3.018V25zm2.353 0h8.624v-2.276h-5.098l4.922-6.709v-1.933h-8.145v2.275h4.756l-5.059 6.885V25zM4 26a3 3 0 0 1 3-3h10a3 3 0 0 1 3 3v58a3 3 0 0 1-3 3H7a3 3 0 0 1-3-3V26zm25 15a3 3 0 0 1 3-3h10a3 3 0 0 1 3 3v43a3 3 0 0 1-3 3H32a3 3 0 0 1-3-3V41zm28 12a3 3 0 0 0-3 3v28a3 3 0 0 0 3 3h10a3 3 0 0 0 3-3V56a3 3 0 0 0-3-3H57zm22 16a3 3 0 0 1 3-3h10a3 3 0 0 1 3 3v15a3 3 0 0 1-3 3H82a3 3 0 0 1-3-3V69z" fill="#77A4C5"/></svg>