<svg width="160" height="160" viewBox="0 0 160 160" fill="none" xmlns="http://www.w3.org/2000/svg"><path fill-rule="evenodd" clip-rule="evenodd" d="M55.111 4a3 3 0 0 0-2.988 2.728l-.043.496c-.142 1.666-.406 4.748-1.289 8.09-.995 3.767-2.659 7.378-5.357 9.586-2.906 2.377-7.119 3.989-11.312 4.891-4.224.91-7.923.994-9.6.698A3 3 0 0 0 21 33.444v68.644c0 14.527 7.594 23.183 16.135 28.772 4.215 2.758 8.693 4.798 12.59 6.467.828.355 1.618.688 2.369 1.005l.002.001c2.917 1.231 5.244 2.213 6.916 3.217 7.763 4.657 14.271 9.053 18.548 14.73a2.982 2.982 0 0 0 1.165.969 2.991 2.991 0 0 0 2.55 0 2.983 2.983 0 0 0 1.165-.969c4.277-5.677 10.785-10.073 18.548-14.73 1.672-1.004 3.999-1.986 6.917-3.217.751-.317 1.541-.651 2.37-1.006 3.897-1.669 8.375-3.709 12.59-6.467 8.541-5.589 16.135-14.245 16.135-28.772V33.444a2.999 2.999 0 0 0-3.521-2.955c-1.678.296-5.377.212-9.601-.698-4.193-.902-8.406-2.514-11.312-4.891-2.698-2.208-4.362-5.82-5.357-9.586-.883-3.342-1.147-6.424-1.289-8.09l-.001-.005a81.785 81.785 0 0 0-.042-.491 3.001 3.001 0 0 0-2.988-2.729H55.111zm2.73 6c-.208 1.835-.57 4.274-1.249 6.846-1.118 4.231-3.213 9.305-7.359 12.697-3.939 3.223-9.19 5.111-13.849 6.114-2.984.642-5.933.965-8.384.984v65.447c0 11.917 6.017 18.906 13.42 23.751 3.757 2.458 7.836 4.332 11.667 5.973.705.301 1.413.6 2.115.895 2.965 1.249 5.824 2.453 7.897 3.698 6.618 3.97 13.023 8.132 17.901 13.445 4.878-5.313 11.283-9.475 17.901-13.445 2.073-1.245 4.932-2.449 7.897-3.698.702-.295 1.41-.594 2.115-.895 3.831-1.641 7.91-3.515 11.667-5.973 7.403-4.845 13.42-11.834 13.42-23.751V36.641c-2.451-.02-5.4-.342-8.384-.984-4.66-1.003-9.91-2.891-13.849-6.114-4.146-3.392-6.241-8.466-7.359-12.697-.68-2.572-1.041-5.011-1.249-6.847H57.841z" fill="#77A4C5"/><path fill-rule="evenodd" clip-rule="evenodd" d="M80 57c-11.598 0-21 9.4-21 21 0 11.597 9.402 21 21 21s21-9.403 21-21c0-.792-.044-1.572-.128-2.338a3 3 0 1 1 5.963-.659c.109.985.165 1.985.165 2.996 0 14.912-12.088 27-27 27s-27-12.088-27-27c0-14.911 12.088-27 27-27 5.546 0 10.71 1.676 15.002 4.549a3 3 0 0 1-3.337 4.986A20.888 20.888 0 0 0 80 56.999z" fill="#4ECD00"/><path fill-rule="evenodd" clip-rule="evenodd" d="M103.121 61.878a3 3 0 0 1 0 4.243l-21 21a3 3 0 0 1-4.242 0l-11-11a3 3 0 0 1 4.242-4.243L80 80.757l18.879-18.88a3 3 0 0 1 4.242 0z" fill="#4ECD00"/></svg>