<svg width="24" height="24" viewBox="0 0 24 24" fill="none" xmlns="http://www.w3.org/2000/svg"><path fill-rule="evenodd" clip-rule="evenodd" d="M12 3a9 9 0 1 0 8.945 7.998 1 1 0 0 1 1.988-.22c.044.402.067.81.067 1.222 0 6.075-4.925 11-11 11S1 18.075 1 12 5.925 1 12 1c2.26 0 4.363.682 6.112 1.853a1 1 0 1 1-1.113 1.662A8.953 8.953 0 0 0 12 3z" fill="#77A4C5"/><path fill-rule="evenodd" clip-rule="evenodd" d="M22.707 4.293a1 1 0 0 1 0 1.414l-10 10a1 1 0 0 1-1.414 0l-5-5a1 1 0 0 1 1.414-1.414L12 13.586l9.293-9.293a1 1 0 0 1 1.414 0z" fill="#4ECD00"/></svg>