<svg width="160" height="160" viewBox="0 0 160 160" fill="none" xmlns="http://www.w3.org/2000/svg"><path d="M64 22a3 3 0 0 1 3-3h9a3 3 0 0 1 0 6h-6v3h15a3 3 0 1 1 0 6H67a3 3 0 0 1-3-3v-9z" fill="#77A4C5"/><path fill-rule="evenodd" clip-rule="evenodd" d="M12.19 70.376c.808-6.526 6.755-11.16 13.28-10.35 6.526.808 11.16 6.755 10.35 13.28-.809 6.526-6.755 11.16-13.28 10.35-6.526-.809-11.16-6.755-10.35-13.28zm12.542-4.396a5.906 5.906 0 1 0-1.454 11.722 5.906 5.906 0 0 0 1.454-11.722zm97.209 4.396c.81-6.526 6.756-11.16 13.281-10.35 6.526.808 11.16 6.755 10.351 13.28-.809 6.526-6.756 11.16-13.281 10.35-6.526-.809-11.16-6.755-10.351-13.28zm12.543-4.396a5.906 5.906 0 1 0-1.454 11.72 5.906 5.906 0 0 0 1.454-11.721z" fill="#77A4C5"/><path fill-rule="evenodd" clip-rule="evenodd" d="M40.027 56.7c4.356 4.615 6.696 11.065 5.854 17.854-1.498 12.082-12.507 20.662-24.589 19.163C9.21 92.22.63 81.21 2.128 69.128 3.611 57.175 14.403 48.65 26.333 49.92l8.006-11.529-13.27.155a5 5 0 0 1-4.872-3.645l-.475-1.69a5 5 0 0 1 4.034-6.292l.207-.033-.945-8.557a3 3 0 0 1 2.65-3.311l27-3a3.46 3.46 0 0 1 .046-.005l.278-.273a6 6 0 0 1 4.26-1.716l23.992.233a8 8 0 0 1 5.103 1.904l15.678 13.324 22.081.214a7.004 7.004 0 0 1 2.909.664l12.994 6.104a4 4 0 0 1 2.082 4.922l-1.035 3.006a4 4 0 0 1-3.573 2.693l-16.573.868 5.852 8.778a21.946 21.946 0 0 1 13.708-2.77c12.082 1.499 20.662 12.508 19.164 24.59-1.499 12.082-12.508 20.662-24.59 19.163-12.082-1.498-20.662-12.507-19.163-24.589a22.014 22.014 0 0 1 1.914-6.653l-11.498-6.9a29.68 29.68 0 0 0-1.105 5.63c-.259 2.623-2.544 4.888-5.457 4.688l-35.397-2.427a5 5 0 0 1-3.228-1.487l-2.46-2.509c-1.128-1.15-1.529-2.636-1.52-3.896.008-1.041-.144-3.53-1.362-7.759L40.028 56.7zm80.437-24.906l11.369 5.34-.011.033-15.8.827a12.167 12.167 0 0 0-1.23.008c-.842.046-1.994.186-3.348.55-2.727.73-6.219 2.353-9.595 5.826-4.682 4.817-6.095 11.723-6.544 15.471l-34.178-2.343-1.996-2.036c-.004-1.79-.303-4.986-1.756-9.858-.742-2.489-2.357-4.515-4.09-6.1-1.746-1.598-3.78-2.902-5.648-3.917a45.411 45.411 0 0 0-7.055-3.067l-.075-.025-.055-.018-.039-.012-.012-.004-.004-.001h-.002s-.001-.001-.85 2.716l.849-2.717-.454-.142-17.225.201 16.268-2.565 14.21-13.937 23.993.232a2 2 0 0 1 1.275.476l17.333 14.732 24.254.235a.997.997 0 0 1 .416.095zm-75.693 9.072a38.752 38.752 0 0 0-3.644-1.73l-8.592 12.372c.92.386 1.806.83 2.653 1.33l12.96-9.808c-1.033-.796-2.196-1.522-3.377-2.164zm72.294 16.574c.303-.351.617-.692.941-1.023l-7.432-11.148c-1.36.676-2.884 1.708-4.423 3.291a12.95 12.95 0 0 0-1.288 1.558l12.202 7.322zM25.896 25.95l10.256-1.617 5.62-5.512-16.461 1.829.585 5.3zm.083 29.969c-8.793-1.09-16.806 5.154-17.896 13.948-1.09 8.793 5.154 16.805 13.947 17.896 8.794 1.09 16.806-5.154 17.897-13.948 1.09-8.793-5.154-16.806-13.948-17.896zm109.753 0c-8.794-1.09-16.806 5.154-17.897 13.948-1.09 8.793 5.154 16.805 13.948 17.896 8.793 1.09 16.806-5.154 17.896-13.948 1.091-8.793-5.154-16.806-13.947-17.896z" fill="#77A4C5"/><circle cx="66" cy="112.999" r="9" stroke="#4ECD00" stroke-width="6"/><circle cx="66" cy="112.999" r="3" fill="#4ECD00"/><circle cx="108" cy="112.999" r="9" stroke="#4ECD00" stroke-width="6"/><circle cx="108" cy="112.999" r="3" fill="#4ECD00"/><circle cx="87" cy="128.999" r="3" fill="#4ECD00"/><path fill-rule="evenodd" clip-rule="evenodd" d="M90 82a3 3 0 0 0-6 0v6h-3a3 3 0 0 0-3 3v4h-.634c-2.223-2.253-6.558-5-13.366-5-8.383 0-13.419 4.705-14.898 10.223-2.596 9.686-8.359 30.594-9.481 34.434-.8 2.736-1.3 6.514-.48 10.056.855 3.701 3.217 7.259 8.015 8.665 3.671 1.076 7.357.93 10.784-.633 2.949-1.344 5.516-3.648 7.68-6.746h42.481c2.164 3.098 4.731 5.402 7.68 6.746 3.427 1.563 7.112 1.709 10.784.633 4.797-1.406 7.16-4.964 8.016-8.665.818-3.542.319-7.32-.481-10.056-1.122-3.84-6.885-24.748-9.481-34.434-1.479-5.518-6.515-10.224-14.898-10.224-6.808 0-11.143 2.748-13.366 5H96v-4a3 3 0 0 0-3-3h-3v-6zm0 13v-1h-6v1h6zm-15.523 5.999h24.767l.899-1.23c.669-.914 3.54-3.77 9.578-3.77 5.781 0 8.355 2.99 9.102 5.777 2.597 9.69 8.375 30.655 9.518 34.565.617 2.108.909 4.792.394 7.021-.478 2.068-1.574 3.589-3.858 4.258-2.434.714-4.623.571-6.607-.334-2.026-.924-4.091-2.759-5.993-5.857l-.878-1.43H62.322l-.879 1.43c-1.901 3.098-3.966 4.933-5.992 5.857-1.984.905-4.173 1.048-6.607.334-2.285-.669-3.38-2.19-3.858-4.258-.515-2.229-.223-4.913.393-7.021 1.144-3.91 6.922-24.875 9.519-34.565.747-2.787 3.32-5.777 9.102-5.777 6.038 0 8.91 2.856 9.578 3.77l.899 1.23z" fill="#77A4C5"/><rect x="81" y="106.999" width="12" height="6" rx="3" fill="#4ECD00"/><rect x="76" y="130.999" width="9" height="6" rx="3" fill="#4ECD00"/><rect x="76" y="120.999" width="9" height="6" rx="3" fill="#4ECD00"/><rect x="89" y="130.999" width="9" height="6" rx="3" fill="#4ECD00"/><rect x="89" y="120.999" width="9" height="6" rx="3" fill="#4ECD00"/></svg>