<svg width="160" height="160" viewBox="0 0 160 160" fill="none" xmlns="http://www.w3.org/2000/svg"><path d="M51 76a3 3 0 0 0 0 6c7.554 0 14.378 3.097 19.282 8.1a3 3 0 0 0 4.285-4.2C68.58 79.792 60.23 76 51 76z" fill="#4ECD00"/><path fill-rule="evenodd" clip-rule="evenodd" d="M39 47a3 3 0 0 0-3 3v10a3 3 0 0 0 3 3h3v3.943c-8.684 1.85-16.398 6.321-22.272 12.542l-6.607-6.607A3 3 0 1 0 8.88 77.12l74 74a3.001 3.001 0 0 0 4.242-4.243l-6.607-6.607C88.814 132.434 94 121.322 94 108.999c0-20.661-14.572-37.92-34-42.056v-3.944h3a3 3 0 0 0 3-3V50a3 3 0 0 0-3-3H39zm15 16h-6v3.102a43.632 43.632 0 0 1 6 0V63zm-12-6v-4h18v4H42zm3.25 48.006L23.973 83.73C30.728 76.507 40.337 72 51 72c20.434 0 37 16.565 37 36.999 0 10.663-4.508 20.272-11.73 27.027l-21.277-21.277a6.99 6.99 0 0 0 2.979-6.383L77.49 97.097a3 3 0 0 0-3-5.196L54.92 103.2a6.966 6.966 0 0 0-3.92-1.201 6.993 6.993 0 0 0-5.75 3.007z" fill="#4ECD00"/><path d="M15.997 96.974a3 3 0 0 0-5.674-1.95A42.945 42.945 0 0 0 8 109c0 23.748 19.252 43 43 43 4.887 0 9.59-.816 13.975-2.322a3 3 0 0 0-1.95-5.675A36.938 36.938 0 0 1 51 145.999c-20.434 0-37-16.565-37-37 0-4.215.704-8.259 1.997-12.025z" fill="#4ECD00"/><path d="M128 64a4 4 0 1 0 0-8 4 4 0 0 0 0 8z" fill="#77A4C5"/><path fill-rule="evenodd" clip-rule="evenodd" d="M136.076 8a9.005 9.005 0 0 0-9.757-4.383L106 8.03V8H65c-6.627 0-12 5.373-12 12v21a3 3 0 0 0 6 0V30.395A11.945 11.945 0 0 0 65 32h74a3 3 0 0 1 3 3v12h-15c-7.18 0-13 5.82-13 13 0 7.179 5.82 13 13 13h15v12a3 3 0 0 1-3 3H97a3 3 0 0 0 0 6h42a9 9 0 0 0 9-9V73a7 7 0 0 0 7-7V54a7 7 0 0 0-7-7V17a9 9 0 0 0-9-9h-2.924zm-4.914 3.78a3 3 0 0 0-3.57-2.3L65.636 22.932a3 3 0 0 1-1.272-5.863L78.496 14H65a6 6 0 0 0 0 12h74a9 9 0 0 1 3 .511V17a3 3 0 0 0-3-3h-1.223l1.156 5.368a3 3 0 0 1-5.866 1.263l-1.905-8.85zM127 53a7 7 0 1 0 0 14h21a1 1 0 0 0 1-1V54a1 1 0 0 0-1-1h-21z" fill="#77A4C5"/></svg>