<svg width="100" height="100" viewBox="0 0 100 100" fill="none" xmlns="http://www.w3.org/2000/svg"><path d="M48 18a3 3 0 0 1 6 0v10a3 3 0 0 1-6 0V18z" fill="#77A4C5"/><path fill-rule="evenodd" clip-rule="evenodd" d="M51 65c8.284 0 15-6.716 15-15 0-8.285-6.716-15-15-15-8.284 0-15 6.715-15 15 0 8.284 6.716 15 15 15zm0-6a9 9 0 1 0 0-18 9 9 0 0 0 0 18z" fill="#77A4C5"/><path d="M51 70a3 3 0 0 0-3 3v10a3 3 0 0 0 6 0V73a3 3 0 0 0-3-3zM25.898 25.398a3 3 0 0 0 0 4.242l7.07 7.071a3 3 0 1 0 4.243-4.242l-7.07-7.072a3 3 0 0 0-4.243 0zm38.89 38.89a3 3 0 0 0 0 4.243l7.072 7.071a3 3 0 0 0 4.242-4.243l-7.07-7.07a3 3 0 0 0-4.243 0zm7.072-38.89a3 3 0 1 1 4.242 4.242l-7.07 7.071a3 3 0 0 1-4.243-4.242l7.07-7.072zm-38.891 38.89a3 3 0 0 1 4.242 4.243l-7.07 7.071a3 3 0 1 1-4.243-4.243l7.07-7.07zM83.5 47.278a3 3 0 0 1 0 6h-10a3 3 0 0 1 0-6h10zm-52 3.443a3 3 0 0 0-3-3h-10a3 3 0 1 0 0 6h10a3 3 0 0 0 3-3z" fill="#77A4C5"/></svg>