<svg width="100" height="100" viewBox="0 0 100 100" fill="none" xmlns="http://www.w3.org/2000/svg"><path d="M21.35 6.983a2 2 0 0 1 2.244-1.723l7.932 1.04a2 2 0 0 1 1.723 2.243l-2.6 19.83a2 2 0 0 1-2.243 1.723l-7.932-1.04a2 2 0 0 1-1.723-2.243l2.6-19.83z" fill="#77A4C5"/><path fill-rule="evenodd" clip-rule="evenodd" d="M33.5 20l.5-4h34l-.5 4H56v14h4c5.523 0 10 4.477 10 10v11c0 5.523-4.477 10-10 10h-4v15h12v4H34v-4h12V65h-4c-5.523 0-10-4.477-10-10V44c0-5.523 4.477-10 10-10h4V20H33.5zM60 40H42a4 4 0 0 0-4 4v11a4 4 0 0 0 4 4h18a4 4 0 0 0 4-4V44a4 4 0 0 0-4-4z" fill="#77A4C5"/><path d="M20 72a2 2 0 0 1 2-2h8a2 2 0 0 1 2 2v20a2 2 0 0 1-2 2h-8a2 2 0 0 1-2-2V72zm52-2a2 2 0 0 0-2 2v20a2 2 0 0 0 2 2h8a2 2 0 0 0 2-2V72a2 2 0 0 0-2-2h-8zm1.103-64.74a2 2 0 0 0-2.243 1.723l-2.6 19.83a2 2 0 0 0 1.723 2.243l7.932 1.04a2 2 0 0 0 2.243-1.723l2.6-19.83A2 2 0 0 0 81.035 6.3l-7.932-1.04z" fill="#77A4C5"/></svg>