<?xml version="1.0" encoding="UTF-8" standalone="no"?>
<!DOCTYPE svg PUBLIC "-//W3C//DTD SVG 1.1//EN" "http://www.w3.org/Graphics/SVG/1.1/DTD/svg11.dtd">
<svg width="100%" height="100%" viewBox="0 0 770 136" version="1.1" xmlns="http://www.w3.org/2000/svg" xmlns:xlink="http://www.w3.org/1999/xlink" xml:space="preserve" xmlns:serif="http://www.serif.com/" style="fill-rule:evenodd;clip-rule:evenodd;stroke-linejoin:round;stroke-miterlimit:2;">
    <g transform="matrix(1,0,0,1,-146.608,-244.564)">
        <g transform="matrix(4.16667,0,0,4.16667,301.993,328.006)">
            <path d="M0,-7.614C0,-11.647 2.516,-12.967 6.089,-12.967C8.295,-12.967 9.716,-12.826 11.18,-12.223L10.837,-8.85C9.593,-9.399 8.205,-9.606 6.198,-9.606C5.435,-9.606 4.271,-9.342 4.271,-8.17L4.271,-7.909C4.271,-7.306 4.672,-6.819 5.177,-6.574L8.855,-5.003C11.34,-4.028 12.245,-3.05 12.245,-0.491L12.244,-0.135C12.209,3.776 9.893,5.353 5.983,5.353C3.212,5.353 1.563,5.044 0.2,4.547L0.503,1.186C2.504,1.818 3.869,2.047 6.283,2.024C7.275,2.021 8.041,1.272 8.041,0.278L8.041,-0.114C8.041,-0.798 7.639,-1.324 7.037,-1.619L3.18,-3.211C0.89,-4.125 0.015,-4.937 0,-7.314L0,-7.614Z" style="fill-rule:nonzero;"/>
        </g>
        <g transform="matrix(4.16667,0,0,4.16667,379.325,311.373)">
            <path d="M0,0.368L3.257,0.368C4.212,0.368 4.933,-0.327 4.933,-1.339L4.933,-3.694C4.933,-4.648 4.212,-5.402 3.257,-5.402L0,-5.402L0,0.368ZM3.903,-8.747C7.139,-8.747 9.081,-6.589 9.081,-3.379L9.081,-1.654C9.081,1.623 7.139,3.713 3.903,3.713L0,3.713L0,9.115L-4.149,9.115L-4.149,-8.747L3.903,-8.747Z" style="fill-rule:nonzero;"/>
        </g>
        <g transform="matrix(4.16667,0,0,4.16667,443.373,311.309)">
            <path d="M0,0.399L3.257,0.399C4.212,0.399 4.933,-0.28 4.933,-1.292L4.933,-3.679C4.933,-4.633 4.212,-5.386 3.257,-5.386L0,-5.386L0,0.399ZM3.903,-8.731C7.139,-8.731 9.081,-6.573 9.081,-3.364L9.081,-1.67C9.081,0.343 8.145,1.935 6.743,2.641L9.727,9.13L4.913,9.13L2.812,3.697L-0.016,3.697L-0.016,9.13L-4.165,9.13L-4.165,-8.731L3.903,-8.731Z" style="fill-rule:nonzero;"/>
        </g>
        <g transform="matrix(4.16667,0,0,4.16667,533.28,304.52)">
            <path d="M0,3.653L-2.009,-3.762L-4.018,3.653L0,3.653ZM1.641,10.759L0.573,6.932L-4.591,6.932L-5.648,10.759L-10.008,10.759L-4.618,-7.106L0.61,-7.106L6.002,10.759L1.641,10.759Z" style="fill-rule:nonzero;"/>
        </g>
        <g transform="matrix(4.16667,0,0,4.16667,593.877,274.928)">
            <path d="M0,17.862L-4.165,17.862L-4.165,10.72L-9.807,0L-5.361,0L-2.082,6.924L1.207,0L5.652,0L0,10.74L0,17.862Z" style="fill-rule:nonzero;"/>
        </g>
        <g transform="matrix(4.16667,0,0,4.16667,643.259,311.373)">
            <path d="M0,0.368L3.257,0.368C4.213,0.368 4.933,-0.327 4.933,-1.339L4.933,-3.694C4.933,-4.648 4.213,-5.402 3.257,-5.402L0,-5.402L0,0.368ZM3.903,-8.747C7.14,-8.747 9.082,-6.589 9.082,-3.379L9.082,-1.654C9.082,1.623 7.14,3.713 3.903,3.713L0,3.713L0,9.115L-4.148,9.115L-4.148,-8.747L3.903,-8.747Z" style="fill-rule:nonzero;"/>
        </g>
        <g transform="matrix(4.16667,0,0,4.16667,755.181,304.509)">
            <path d="M0,3.657L2.01,-3.758L4.019,3.657L0,3.657ZM4.628,-7.105L-0.6,-7.105L-5.004,7.495L-11.417,7.495L-11.417,-7.082L-15.582,-7.082L-15.582,10.762L-1.63,10.762L-0.573,6.935L4.592,6.935L5.66,10.762L10.021,10.762L4.628,-7.105Z" style="fill-rule:nonzero;"/>
        </g>
        <g transform="matrix(4.16667,0,0,4.16667,803.641,328.006)">
            <path d="M0,-7.614C0,-11.647 2.515,-12.967 6.088,-12.967C8.295,-12.967 9.716,-12.826 11.18,-12.223L10.837,-8.85C9.592,-9.399 8.205,-9.606 6.198,-9.606C5.435,-9.606 4.27,-9.342 4.27,-8.17L4.27,-7.909C4.27,-7.306 4.672,-6.819 5.177,-6.574L8.855,-5.003C11.34,-4.028 12.245,-3.05 12.245,-0.491L12.244,-0.135C12.208,3.776 9.892,5.353 5.982,5.353C3.212,5.353 1.563,5.044 0.199,4.547L0.503,1.186C2.503,1.818 3.868,2.047 6.283,2.024C7.274,2.021 8.041,1.272 8.041,0.278L8.041,-0.114C8.041,-0.798 7.639,-1.324 7.037,-1.619L3.179,-3.211C0.889,-4.125 0.014,-4.937 0,-7.314L0,-7.614Z" style="fill-rule:nonzero;"/>
        </g>
        <g transform="matrix(4.16667,0,0,4.16667,895.851,335.808)">
            <path d="M0,-11.36L0,3.251L-4.165,3.251L-4.165,-11.36L-9.161,-11.36L-9.161,-14.611L4.928,-14.611L4.928,-11.36L0,-11.36Z" style="fill-rule:nonzero;"/>
        </g>
        <g transform="matrix(4.16667,0,0,4.16667,-696.219,65.9127)">
            <g transform="matrix(1,0,0,1,227.104,63.7192)">
                <path d="M0,0.658C-1.92,8.37 -9.761,13.084 -17.479,11.167C-19.758,10.596 -21.857,9.487 -23.593,7.938L-21.159,5.504C-19.867,6.617 -18.322,7.418 -16.649,7.836C-15.759,8.057 -14.87,8.162 -13.997,8.162C-9.069,8.162 -4.572,4.819 -3.33,-0.172C-2.474,-3.621 -3.367,-7.311 -5.663,-9.992L-5.64,-10.015L-3.228,-12.426C-0.042,-8.856 1.163,-4.027 0,0.658" style="fill:rgb(239,59,35);fill-rule:nonzero;"/>
            </g>
            <g transform="matrix(1,0,0,1,226.304,63.2414)">
                <path d="M0,-16.709L-2.412,-14.294L-2.431,-14.274L-2.435,-14.274C-3.726,-15.388 -5.271,-16.188 -6.944,-16.607C-12.824,-18.069 -18.797,-14.476 -20.263,-8.599C-21.119,-5.149 -20.227,-1.46 -17.93,1.221L-17.954,1.245L-20.361,3.656C-23.55,0.085 -24.756,-4.744 -23.59,-9.429C-21.959,-15.978 -16.062,-20.365 -9.596,-20.365C-8.446,-20.365 -7.28,-20.224 -6.114,-19.937C-3.834,-19.367 -1.736,-18.257 0,-16.709" style="fill:rgb(239,59,35);fill-rule:nonzero;"/>
            </g>
            <g transform="matrix(1,0,0,1,222.704,61.12)">
                <path d="M0,-10.987L-2.401,-8.582L-2.441,-8.543L-2.444,-8.543C-3.074,-9.017 -3.798,-9.36 -4.572,-9.554C-7.731,-10.341 -10.943,-8.407 -11.73,-5.248C-12.162,-3.522 -11.773,-1.681 -10.716,-0.271L-13.16,2.177C-15.084,-0.113 -15.792,-3.14 -15.061,-6.079C-14.007,-10.321 -10.186,-13.164 -5.996,-13.164C-5.251,-13.164 -4.497,-13.075 -3.742,-12.888C-2.359,-12.542 -1.081,-11.889 0,-10.987" style="fill:rgb(239,59,35);fill-rule:nonzero;"/>
            </g>
            <g transform="matrix(1,0,0,1,222.176,62.9447)">
                <path d="M0,0.204C-1.245,5.201 -6.325,8.255 -11.322,7.013C-12.706,6.667 -13.983,6.015 -15.064,5.112L-12.62,2.668C-11.991,3.142 -11.266,3.485 -10.492,3.679C-10.014,3.798 -9.537,3.854 -9.065,3.854C-6.417,3.854 -4.002,2.058 -3.333,-0.626C-2.902,-2.353 -3.291,-4.194 -4.348,-5.604L-1.9,-8.051C0.02,-5.762 0.731,-2.734 0,0.204" style="fill:rgb(239,59,35);fill-rule:nonzero;"/>
            </g>
            <g transform="matrix(1,0,0,1,219.08,58.952)">
                <path d="M0,-5.192L-2.372,-2.82L-2.955,-2.237L-4.655,-0.537L-4.994,-0.198L-5.505,0.313L-5.913,0.721C-6.582,-0.271 -6.803,-1.493 -6.509,-2.682C-6.025,-4.619 -4.283,-5.913 -2.375,-5.913C-2.033,-5.913 -1.69,-5.874 -1.344,-5.788C-0.863,-5.666 -0.409,-5.465 0,-5.192" style="fill:rgb(239,59,35);fill-rule:nonzero;"/>
            </g>
            <g transform="matrix(1,0,0,1,217.245,62.1901)">
                <path d="M0,-0.267C-0.566,2.009 -2.882,3.403 -5.162,2.836C-5.646,2.714 -6.101,2.513 -6.506,2.24L-0.596,-3.67C0.072,-2.678 0.296,-1.459 0,-0.267" style="fill:rgb(239,59,35);fill-rule:nonzero;"/>
            </g>
        </g>
    </g>
</svg>
