<?xml version="1.0" encoding="UTF-8" standalone="no"?><!DOCTYPE svg PUBLIC "-//W3C//DTD SVG 1.1//EN" "http://www.w3.org/Graphics/SVG/1.1/DTD/svg11.dtd"><svg viewBox="0 0 770 136" xmlns="http://www.w3.org/2000/svg" xmlns:xlink="http://www.w3.org/1999/xlink"><style>:root>svg{display:none}:root>svg:target{display:block}</style><svg viewBox="0 0 770 136" fill-rule="evenodd" clip-rule="evenodd" stroke-linejoin="round" stroke-miterlimit="2" id="logo" xmlns="http://www.w3.org/2000/svg"><path d="M155.385 51.717c0-16.804 10.483-22.304 25.37-22.304 9.193 0 15.113.587 21.213 3.1l-1.429 14.054c-5.183-2.288-10.966-3.15-19.329-3.15-3.18 0-8.03 1.1-8.03 5.983v1.088c0 2.512 1.672 4.541 3.776 5.562l15.325 6.546c10.354 4.063 14.125 8.138 14.125 18.8l-.004 1.483c-.146 16.296-9.796 22.867-26.088 22.867-11.546 0-18.416-1.287-24.096-3.358l1.263-14.004c8.337 2.633 14.025 3.587 24.083 3.491 4.134-.012 7.325-3.133 7.325-7.275v-1.633c0-2.85-1.675-5.042-4.183-6.27l-16.071-6.634c-9.542-3.809-13.187-7.192-13.25-17.096v-1.25zM232.717 68.342h13.57c3.98 0 6.984-2.896 6.984-7.112v-9.813c0-3.975-3.004-7.116-6.983-7.116h-13.571v24.041zm16.263-37.979c13.483 0 21.575 8.992 21.575 22.367v7.187c0 13.655-8.092 22.363-21.575 22.363h-16.263v22.508h-17.288V30.363h33.55zM296.765 68.408h13.57c3.98 0 6.984-2.83 6.984-7.046v-9.946c0-3.975-3.004-7.113-6.983-7.113h-13.571v24.105zm16.263-38.042c13.483 0 21.575 8.991 21.575 22.362v7.059c0 8.387-3.9 15.02-9.742 17.962l12.433 27.038h-20.058l-8.754-22.638h-11.784v22.638h-17.287V30.366h33.617zM386.672 75.177l-8.37-30.896-8.372 30.896h16.742zm6.838 29.608l-4.45-15.946h-21.517l-4.404 15.946h-18.167l22.458-74.437h21.784l22.466 74.437h-18.17zM447.269 104.79h-17.354V75.03l-23.509-44.666h18.525l13.663 28.85 13.704-28.85h18.521l-23.55 44.75v29.675zM496.651 68.342h13.57c3.984 0 6.984-2.896 6.984-7.112v-9.813c0-3.975-3-7.116-6.983-7.116H496.65v24.041zm16.263-37.979c13.487 0 21.579 8.992 21.579 22.367v7.187c0 13.655-8.092 22.363-21.58 22.363h-16.262v22.508h-17.283V30.363h33.546zM608.573 75.183l8.375-30.896 8.37 30.896h-16.745zm19.283-44.842h-21.783l-18.35 60.833h-26.72V30.437h-17.355v74.35h58.133l4.404-15.946h21.521l4.45 15.946h18.171l-22.47-74.446zM657.033 51.717c0-16.804 10.48-22.304 25.367-22.304 9.196 0 15.116.587 21.216 3.1l-1.429 14.054c-5.187-2.288-10.966-3.15-19.329-3.15-3.18 0-8.033 1.1-8.033 5.983v1.088c0 2.512 1.675 4.541 3.779 5.562l15.325 6.546c10.354 4.063 14.125 8.138 14.125 18.8l-.004 1.483c-.15 16.296-9.8 22.867-26.092 22.867-11.542 0-18.412-1.287-24.096-3.358l1.267-14.004c8.333 2.633 14.02 3.587 24.083 3.491 4.13-.012 7.325-3.133 7.325-7.275v-1.633c0-2.85-1.675-5.042-4.183-6.27l-16.075-6.634c-9.542-3.809-13.188-7.192-13.246-17.096v-1.25zM749.243 43.91v60.88h-17.354V43.91h-20.817V30.366h58.704V43.91h-20.533z" fill-rule="nonzero"/><path d="M103.44 89.587c-8 32.134-40.67 51.775-72.829 43.788-9.496-2.38-18.241-7-25.475-13.454l10.142-10.142a45.805 45.805 0 0029.842 11.075c20.533 0 39.27-13.93 44.445-34.725 3.567-14.37-.154-29.746-9.72-40.917l.095-.096 10.05-10.045c13.275 14.875 18.296 34.995 13.45 54.516M100.107 15.234l-10.05 10.062-.08.084h-.016a45.771 45.771 0 00-18.787-9.721c-24.5-6.092-49.388 8.879-55.496 33.367-3.567 14.375.15 29.745 9.72 40.916l-.1.1-10.028 10.046c-13.288-14.88-18.313-35-13.455-54.52C8.611 18.28 33.182 0 60.124 0c4.791 0 9.65.587 14.508 1.783 9.5 2.375 18.242 7 25.475 13.45" fill="#ef3b23" fill-rule="nonzero"/><path d="M85.107 30.236L75.103 40.257l-.167.163h-.012a24.742 24.742 0 00-8.867-4.213c-13.162-3.279-26.546 4.78-29.825 17.942-1.8 7.192-.18 14.862 4.225 20.737l-10.183 10.2c-8.017-9.541-10.967-22.154-7.921-34.4 4.392-17.675 20.312-29.52 37.77-29.52 3.105 0 6.247.37 9.392 1.15a39.178 39.178 0 0115.592 7.92M82.907 84.468c-5.187 20.821-26.354 33.546-47.175 28.371a39.097 39.097 0 01-15.592-7.92l10.184-10.184a24.709 24.709 0 0014.812 4.942c11.034 0 21.096-7.483 23.884-18.667 1.795-7.196.175-14.867-4.23-20.742l10.2-10.195c8 9.537 10.963 22.154 7.917 34.395" fill="#ef3b23" fill-rule="nonzero"/><path d="M70.007 45.349l-9.883 9.883-2.43 2.43-7.083 7.083-1.412 1.412-2.13 2.13-1.7 1.7c-2.787-4.134-3.708-9.226-2.483-14.18 2.017-8.07 9.275-13.462 17.225-13.462 1.425 0 2.854.162 4.296.52a18.083 18.083 0 015.6 2.484M62.361 79.362c-2.358 9.483-12.008 15.292-21.508 12.929a17.786 17.786 0 01-5.6-2.483l24.625-24.625c2.783 4.133 3.717 9.212 2.483 14.179" fill="#ef3b23" fill-rule="nonzero"/></svg><svg fill="none" viewBox="0 0 170 114" id="materials-ico" xmlns="http://www.w3.org/2000/svg"><path d="M5 6h160l-13 107.5H16.5L5 6z" fill="#C4C4C4"/><path fill="#B0AFAF" d="M0 0h170v6H0z"/></svg></svg>